<?xml version="1.0" encoding="UTF-8" standalone="no"?>
<svg
   xmlns:dc="http://purl.org/dc/elements/1.1/"
   xmlns:cc="http://creativecommons.org/ns#"
   xmlns:rdf="http://www.w3.org/1999/02/22-rdf-syntax-ns#"
   xmlns:svg="http://www.w3.org/2000/svg"
   xmlns="http://www.w3.org/2000/svg"
   xml:space="preserve"
   viewBox="0 0 285.1 69.9"
   height="100%"
   width="100%"
   version="1.1"
   id="Layer_1"><metadata
   id="metadata62"><rdf:RDF><cc:Work
       rdf:about=""><dc:format>image/svg+xml</dc:format><dc:type
         rdf:resource="http://purl.org/dc/dcmitype/StillImage" /><dc:title></dc:title></cc:Work></rdf:RDF></metadata><defs
   id="defs60" />


<g
   id="flowRoot64"
   style="font-style:normal;font-variant:normal;font-weight:normal;font-stretch:normal;font-size:40px;line-height:1.25;font-family:Papyrus;-inkscape-font-specification:'Papyrus, Normal';font-variant-ligatures:normal;font-variant-caps:normal;font-variant-numeric:normal;font-feature-settings:normal;text-align:start;letter-spacing:0px;word-spacing:0px;writing-mode:lr-tb;text-anchor:start;fill:#ffffff;fill-opacity:1;stroke:none"
   transform="matrix(2.4077434,0.0273328,0,2.1183876,-249.82125,-206.85845)"
   aria-label="d0sl"><path
     style="fill:#ffffff"
     id="path4584"
     d="m 127.83594,117.74137 0.68359,0.13672 0.13672,-0.13672 -0.19531,-1.01562 q 0.39062,-0.25391 0.50781,-0.3125 0.0781,-0.0391 1.11328,-1.11329 l 0.52734,-0.37109 q 0.39063,-0.33203 0.60547,-0.33203 0.17578,0 0.6836,0.0977 l 0.27343,0.21484 q 0.3711,-0.27344 0.87891,-0.44922 v -0.50781 q 0.15625,-0.13672 0.89844,-0.39063 l 0.89844,-0.3125 0.66406,-0.0586 q 0.46875,-0.15625 0.54687,-0.15625 0.15625,0 0.46875,0.21484 0.56641,0.39063 0.74219,0.48828 l 0.39063,-0.48828 q 0.58593,0.17578 0.78125,0.19532 1.26953,0.21484 1.36718,0.27343 l 0.46875,0.29297 q 0.0781,0.0586 0.21485,0.0586 0.29297,0 0.72265,-0.33204 -0.27343,-0.35156 -0.29297,-0.42968 l -0.11718,-1.21094 -0.0977,-0.39063 q 1.19141,-0.82031 1.19141,-0.91796 0,-0.15625 -0.70313,-0.85938 -0.44922,-0.48828 -0.44922,-1.67969 l 0.48828,-0.2539 q -0.17578,-0.27344 -0.23437,-0.74219 -0.29297,-0.89844 -0.3125,-1.23047 l -0.0586,-0.54687 q 0.0195,-0.58594 0.0391,-1.50391 0,-0.3125 0.15625,-0.9375 l -0.21485,-1.11328 q 0,-0.0977 0.11719,-0.3711 l 0.35156,-0.21484 q -0.15625,-0.33203 -0.21484,-0.29297 -0.0781,-0.11719 -0.52734,-0.11719 l -0.11719,-0.0586 -0.0586,-0.0391 1.58203,-1.035158 -0.41016,-0.488282 -0.13672,-0.917968 q -0.0391,-0.332032 -0.64453,-0.527344 -0.9375,-0.332031 -0.9375,-0.46875 0,-0.117188 0.21484,-0.3125 0.15625,-0.136719 1.44532,-0.390625 0.37109,-0.527344 1.875,-0.722656 0.13672,0.273437 0.15625,0.898437 l 0.0391,0.371094 v 0.01953 q 0,0.01953 -0.13672,0.859375 v 0.566406 l -0.0391,0.332032 v 0.820312 0.566407 0.82031 q 0,0.15625 -0.0781,0.39063 -0.17578,0.5664 -0.17578,0.60547 l 0.0781,1.44531 -0.39063,0.72266 q 0.17578,0.64453 0.48828,1.15234 l -0.17578,0.72266 0.0781,0.5664 q -0.13672,0.44922 -0.13672,0.52735 0,0.33203 0.13672,0.85937 0.0391,0.21484 0.0391,0.37109 0,0.13672 -0.11719,0.33204 l -0.42969,0.0781 q -0.21484,0.44922 -0.21484,0.66406 0,0.11719 0.0195,0.29297 0.66406,0.41016 0.70313,0.76172 0,0.0586 -0.0977,1.15234 -0.0195,0.0977 -0.0195,0.17579 0,0.52734 0.0781,1.11328 0.0391,0.21484 0.0391,0.35156 0,0.0391 -0.0195,0.11719 -0.0391,0.35156 -0.0391,0.35156 l 0.0195,0.46875 q -0.2539,0.44922 -0.2539,0.50781 0,0 0.0391,1.03516 l 0.0195,0.33203 0.0391,1.15234 0.13672,1.3086 0.0195,0.41015 0.0781,0.91797 -0.0586,0.95703 0.29296,1.69922 -0.0195,0.76172 q 0.27344,1.09375 0.29297,1.42578 0.0195,0.44922 0.0391,0.83985 0.33204,0.3125 0.33204,0.64453 0,0.11718 0,0.2539 -0.23438,0.11719 -1.38672,0.23438 -0.87891,0.19531 -1.44532,0.2539 l -0.27343,-0.23437 q -0.50782,0.35156 -0.91797,0.46875 -0.17578,0.0586 -1.64063,0.33203 -2.10937,0.52734 -3.00781,0.52734 -1.40625,0.21485 -1.75781,0.21485 -1.79688,0 -2.8125,-0.25391 l -0.35156,-0.5664 q -0.56641,0.3125 -0.72266,0.3125 -0.11719,0 -0.21484,-0.23438 -0.0195,-0.0586 -0.0781,-0.35156 -0.0195,-0.11719 -0.21484,-0.3125 -0.3711,0.17578 -0.58594,0.17578 -0.27344,0 -0.48828,-0.19531 -0.78125,-0.66407 -1.13281,-0.89844 0.0586,-0.29297 0.0586,-0.50781 0,-0.39063 -0.35156,-0.70313 -0.44922,-0.39062 -0.46875,-0.44922 l -0.0586,-0.37109 q -0.29296,-1.42578 -0.29296,-1.54297 0,-0.33203 0.11718,-0.78125 0.0977,-0.3125 0.0977,-0.91797 l 0.33203,-0.60547 q 0.74219,-1.875 0.89844,-2.05078 0.19531,-0.19531 0.625,-0.48828 z m 1.09375,6.36719 q 0.41015,0.23437 0.46875,0.37109 l 0.17578,0.42969 q 0.50781,0.68359 0.64453,0.87891 0.13672,0.17578 0.76172,0.68359 l 0.48828,0.48828 0.52734,0.27344 q 0.64453,0.48828 0.70313,0.48828 0.35156,0 0.5664,-0.99609 0.70313,0.41015 1.25,0.41015 l 1.67969,-0.0586 h 0.80078 l 1.71875,-0.39063 q 0.9961,-0.17578 1.19141,-0.35156 0.46875,-0.70312 0.78125,-1.03516 -0.15625,-0.3125 -0.13672,-0.39062 l 0.0977,-0.52734 v -1.52344 l 0.0195,-1.25 q -0.11719,-0.52735 -0.15625,-0.9375 l 0.66406,-0.25391 q -0.11719,-0.33203 -0.11719,-0.54687 0,-0.15625 0.0195,-0.39063 l -0.42968,-0.11719 1.1914,-0.97656 -1.17187,-1.34765 0.0195,-0.39063 q 0,-0.0586 -0.13672,-0.23437 v -0.66407 q -0.33203,-0.13672 -0.44922,-0.13672 -0.0781,0 -0.58594,0.21485 -0.0195,0.0195 -0.21484,0.0195 -0.60547,0 -0.82031,-0.19531 l -0.6836,-0.625 -1.32812,-0.41016 -0.76172,-0.50781 q -0.80078,1.01562 -0.85937,1.03515 h -0.0781 -0.13672 q -0.3125,0 -0.97656,0.29297 l -0.52734,-0.0391 q -0.46875,0 -1.11329,0.72266 l -0.64453,-0.0977 q -0.3125,0.39063 -0.44922,0.46875 l -0.64453,0.37109 q -0.76172,0.66407 -0.72265,1.21094 -0.56641,0.39063 -0.91797,0.91797 -0.52735,0.80078 -0.52735,0.80078 -0.0977,0.25391 -0.0977,0.95703 0,0.29297 0.13672,0.76172 l 0.0781,0.42969 0.17578,0.48828 0.17578,0.50781 q 0.3711,0.60547 0.3711,0.78125 0,0.17578 -0.0195,0.39063 z" /><path
     style="fill:#ffffff"
     id="path4586"
     d="m 147.5625,118.58121 0.17578,-0.0781 q 0.25391,0 0.48828,-0.11719 -0.19531,-0.44922 -0.19531,-0.70312 0,-0.0781 0.0391,-0.29297 l -0.37109,0.19531 q -0.0391,-0.46875 -0.0391,-0.82031 0,-0.72266 0.3125,-1.11328 0.19531,-0.25391 0.78125,-0.50782 V 115.007 l -0.21485,-0.25391 q 0.13672,-0.42969 1.09375,-2.05078 0.76172,-1.28906 1.11328,-1.28906 0.11719,0 0.29297,0.0391 0.21485,-0.33203 0.48828,-0.44922 l -0.15625,-0.29297 q 0.29297,-0.21484 0.44922,-0.33203 0.89844,-0.68359 1.54297,-1.03516 0.56641,-0.3125 1.05469,-0.60547 v -0.0977 l 0.11719,-0.13672 0.42968,0.25391 q 0.48828,-0.29297 0.64453,-0.3711 0.85938,-0.44922 1.40625,-0.8789 l 0.0586,0.0586 q 0.15625,0.0195 0.17578,0.0195 l 0.58594,-0.0977 1.34765,-0.0586 0.6836,-0.0977 h 0.0195 q 0.15625,0 1.11328,0.56641 0.0391,0.0391 0.50781,0.0391 l 0.0586,0.0586 q 0.0391,0.82031 0.52734,0.83984 0.0391,-0.42969 0.21484,-0.60547 l 1.71875,0.46875 -0.0977,0.54688 0.60547,0.0977 q 0.35156,0.46875 1.09375,1.03516 0.5664,0.83984 0.82031,1.21094 l -0.0781,0.66406 q 0.54688,0.0781 0.9961,1.54297 0.21484,0.52734 0.2539,0.99609 l -0.39062,0.0781 q 0.21484,0.17578 0.3125,0.50781 l 0.23437,0.0586 q 0.19532,0.78125 0.19532,1.21094 0,0.21484 -0.0391,0.39063 -0.21484,1.03515 -0.21484,1.03515 l 0.0586,0.35156 v 0.0195 q -0.0781,0.23437 -0.42968,1.23046 -0.82032,0.0586 -0.82032,0.54688 0,0.29297 0.23438,0.625 0.23437,0.33203 0.23437,0.44922 0,0.0586 -0.35156,0.82031 -0.625,1.54297 -0.68359,1.64063 -0.0586,0.0781 -0.85938,0.82031 l -0.54687,0.64453 q -1.97266,1.09375 -2.10938,1.25 -0.17578,0.17578 -0.3125,0.58594 h -0.625 q -0.23437,0.27343 -0.74219,0.50781 -0.50781,0.25391 -0.9375,0.54687 -0.17578,-0.0195 -0.29296,-0.0195 -0.13672,0 -0.78125,0.21485 -0.0391,0.0195 -0.0781,0.0195 -0.0195,0 -0.0586,0 -0.82032,-0.15625 -1.07422,-0.15625 -0.17578,0 -0.46875,0.33203 -0.46875,-0.0977 -0.625,-0.11719 -0.80078,-0.13672 -1.83594,-0.48828 l -0.0195,0.0977 -0.0586,0.0391 q -0.3711,-0.15625 -0.66407,-0.15625 l -0.0391,-0.0586 -0.0586,-0.19532 -0.48828,0.17578 q -0.35157,-0.27343 -0.83985,-0.42968 v -0.0977 q -0.27344,-0.0195 -0.37109,-0.0586 -0.0586,-0.0586 -0.42969,-0.42969 -0.48828,-0.42969 -0.74219,-0.68359 l -0.33203,-0.0977 q -0.23437,-0.44922 -0.23437,-0.76172 0,-0.11719 0,-0.25391 -0.15625,-0.21484 -0.29297,-0.21484 -0.17578,0 -0.41016,0.23438 -0.23437,-0.3711 -0.82031,-0.95704 -0.11719,-0.11718 -0.54688,-1.40625 l -0.35156,-0.68359 -0.11719,-0.46875 -0.15625,-0.35156 -0.0781,-0.58594 q -0.15625,-0.58594 -0.15625,-0.66406 0,-0.0781 0.13672,-0.60547 l -0.0781,-0.46875 q 0,-0.0586 0.0977,-0.23438 z m 4.45312,4.96094 q -0.11718,0.25391 -0.11718,0.39063 0,0.23437 0.21484,0.52734 0.0781,0.13672 0.25391,0.13672 0.19531,0 0.5664,-0.19531 0.3125,0.35156 0.80078,0.5664 0.87891,0.41016 1.32813,0.52735 l -2.55859,0.48828 2.4414,0.2539 q 0.41016,-0.19531 0.72266,-0.21484 v -0.0391 l -0.0586,-0.0391 v -0.11719 q 0.625,0.29297 0.89844,0.39062 0.19531,0.0586 1.09375,0.0977 0.82031,0.11719 0.89844,0.11719 0.11719,0 1.13281,-0.3125 1.64063,-0.25391 1.83594,-0.3711 0.11719,-0.0781 0.89844,-0.76172 l 0.46875,-0.3125 0.5664,-0.72265 q 0.78125,-0.72266 0.82032,-0.76172 0.0391,-0.0586 0.15625,-0.35156 0.0586,-0.21485 0.21484,-0.83985 l 0.42969,-0.29297 q -0.0391,-0.2539 -0.0391,-0.44921 0,-0.11719 0.25391,-0.82032 0.0195,-0.0586 0.0195,-0.13672 0,-0.21484 -0.23437,-0.625 0.35156,-0.19531 0.52734,-0.42968 l -0.46875,-0.41016 q 0.0781,-0.54687 0.0781,-1.03516 0,-0.39062 -0.0195,-0.9375 0,-0.39062 0,-0.46875 0.0195,-1.26953 -0.11718,-1.26953 l -0.48828,-1.15234 q 0.2539,-0.68359 0.2539,-0.76172 0,-0.35156 -0.33203,-0.35156 -0.21484,0 -0.52734,0.33203 -0.13672,-0.41016 -0.50782,-0.78125 0.0781,-0.25391 0.0781,-0.42969 0,-0.15625 -0.21484,-0.41015 -0.44922,0.15625 -0.66407,0.15625 -0.39062,0 -0.72265,-0.48829 0.0391,-0.21484 0.0391,-0.37109 0,-0.27344 -0.29297,-0.42969 -0.0586,-0.0391 -0.46875,-0.0781 -0.25391,-0.0391 -0.39062,-0.25391 -0.46875,-0.19531 -0.60547,-0.33203 -0.27344,-0.21484 -0.29297,-0.21484 -0.91797,0.0977 -0.91797,0.0977 -0.25391,0 -1.13281,-0.13672 -0.29297,-0.0391 -0.54688,-0.0391 -0.5664,0 -1.77734,0.19531 l -0.29297,0.23438 q -0.27344,0 -0.58594,0.15625 -0.13672,0.0586 -0.35156,0.13672 -1.30859,0.48828 -1.60156,0.80078 l -0.52735,0.54687 -0.64453,0.46875 -0.58594,1.09375 -0.68359,0.70313 -0.15625,0.50781 -0.56641,1.03516 -0.21484,1.28906 q -0.3125,1.05469 -0.3125,1.23047 0,1.75781 0.15625,2.28516 0.0977,0.3125 1.07422,1.62109 1.40625,1.34766 1.79687,1.75781 z" /><path
     style="fill:#ffffff"
     id="path4588"
     d="M 181.50781,120.96403 181,121.33512 q -0.76172,-0.21484 -1.21094,-0.21484 -0.52734,0 -1.26953,0.0781 -0.21484,-0.44922 -0.58594,-0.68359 l -0.37109,0.48828 q -0.41016,0.0586 -0.97656,0.21484 -0.23438,0.0586 -0.41016,0.0586 -0.0391,0 -0.11719,-0.0195 -0.74218,-0.15625 -0.74218,-0.15625 -0.0195,0 -0.0586,0.0586 l -0.37109,-0.39063 q -0.3125,0.13672 -0.52735,0.13672 -0.0781,0 -0.48828,-0.19531 -0.0977,-0.0391 -0.35156,-0.13672 -1.50391,-0.52734 -1.50391,-1.71875 0,-1.03515 0.80079,-2.05078 0.21484,-0.29297 1.09375,-1.03516 l 0.39062,-0.37109 0.91797,-0.54687 q 1.40625,-0.85938 2.07031,-1.13282 1.52344,-0.625 2.44141,-0.625 0.15625,0 1.75781,0.41016 l 1.01563,-0.17578 q 0.95703,0.0586 1.11328,0.13672 0.39062,0.19531 0.39062,0.39062 0,0.19531 -0.19531,0.39063 -0.0586,0.0391 -0.95703,0.58593 -0.9375,0.56641 -1.05469,0.56641 -1.26953,0 -1.85547,-0.17578 -0.19531,-0.41016 -0.41015,-0.66406 h -0.11719 l -0.3711,0.39062 q -0.33203,0.0195 -0.48828,0.0195 -0.17578,0 -0.33203,-0.0195 -0.21484,-0.0195 -0.3125,-0.0195 -0.0391,0 -0.50781,0.11719 -0.15625,-0.11719 -0.58594,-0.11719 -0.39062,0.29297 -1.28906,0.78125 -0.46875,0.25391 -0.82031,0.76172 -0.33203,0.50781 -0.33203,0.95703 0,0.21484 0.37109,0.54688 0.0586,0.0586 0.68359,0.3125 0.3711,0.17578 0.76172,0.42968 -0.0195,0.15625 -0.0195,0.25391 0,0.41016 0.33203,0.41016 0.3125,0 0.70313,-0.50782 0.44922,0.0586 0.76172,0.0586 0.11718,0 1.11328,-0.17578 l 0.625,0.0586 q 0.85937,-0.11719 0.9375,-0.11719 0.13672,0 0.99609,0.27344 l 0.70313,-0.0781 0.70312,0.48829 q 1.13281,0.52734 1.54297,0.99609 0.3125,0.39062 0.35156,0.625 l 0.13672,0.64453 q 0.27344,1.17188 0.27344,1.34766 0,0.11718 -0.0781,0.68359 -0.0977,1.25 -0.72265,1.25 -0.19532,0 -0.44922,-0.0586 -0.23438,0.97656 -0.39063,1.11328 -0.8789,1.01562 -1.13281,1.36719 -0.99609,0.13671 -1.64062,0.60546 -0.29297,0.23438 -0.35157,0.25391 -0.0586,0.0195 -0.48828,0.0586 l -1.58203,0.42969 q -0.78125,-0.13672 -0.85937,-0.13672 -0.11719,0 -1.17188,0.3125 l -0.46875,-0.0586 q -0.9375,-0.0586 -1.40625,-0.15625 -1.01562,-0.25391 -1.07422,-0.37109 l -0.625,-0.41016 q -1.15234,-0.70313 -1.42578,-1.01563 -0.58594,-0.68359 -0.58594,-1.32812 0,-0.13672 0.42969,-0.46875 l 0.52734,-0.48828 q 0.74219,-0.54688 0.85938,-0.54688 0.0781,0 0.13672,0.0586 0.44922,0.42968 0.44922,0.9375 l -0.0781,0.625 v 0.0195 q -0.0195,0.17578 0.0977,0.27344 0.0781,0.0781 0.70312,0.42968 0.13672,0.0781 0.35157,0.25391 0.48828,0.42969 0.50781,0.42969 l 0.72265,0.29297 0.66407,0.35156 h 0.74218 l 0.46875,0.0977 q 0.72266,-0.21484 1.28907,-0.23437 0.54687,-0.0195 0.80078,-0.15625 l 0.76172,-0.37109 q 0.625,-0.21485 0.72265,-0.29297 0.3711,-0.29297 0.97657,-1.28907 0.625,-1.03515 0.625,-2.36328 0,-0.29297 -0.17579,-0.54687 -0.76171,-1.15235 -0.97656,-1.58203 z" /><path
     style="fill:#ffffff"
     id="path4590"
     d="m 189.59375,96.80387 q 0.29297,-0.07813 0.48828,-0.214843 0.46875,-0.3125 0.72266,-0.410157 0.52734,-0.234375 0.97656,-0.761718 0.0977,0 0.17578,0 0.44922,0 0.44922,0.527343 v 0.03906 q 0,0.117187 -0.0195,0.253906 -0.0195,0.09766 -0.0195,0.117188 l 0.19531,0.683593 -0.0781,1.640625 q -0.0195,1.582033 -0.0391,1.660163 -0.0391,0.19531 -0.33203,0.52734 l -0.11719,0.625 0.41016,0.0586 q 0.11719,0.48829 0.11719,0.70313 0,0.37109 -0.41016,0.78125 -0.0391,0.54687 -0.0391,0.70312 0,0.21485 0.2539,0.42969 0.0195,0.3711 0.0195,0.54688 l -0.0977,2.4414 v 2.48047 q 0,0.19531 -0.35156,0.76172 -0.11719,0.21484 -0.11719,0.39063 0,0.0391 0.27344,0.97656 0,0.0195 0,0.0977 0,0.29297 -0.41016,0.66407 l 0.42969,0.9375 0.21484,0.15625 v 1.21093 l 0.0586,4.39454 -0.35157,0.21484 q 0.0586,0.42969 0.0586,0.70312 0,0.0781 -0.11719,0.9375 0,0.0391 0,0.52735 l 0.60547,0.0781 q -0.0586,0.13672 -0.0586,0.13672 l 0.35157,3.1836 -0.0391,0.82031 q 0.11719,0.58594 0.11719,0.58594 -0.39062,0.625 -0.39062,0.68359 0,0.0977 0.0977,0.25391 -0.39062,0.15625 -1.09375,0.58593 -0.41015,0.23438 -0.46875,0.25391 -0.0391,0.0195 -0.37109,0.0195 -0.46875,0.37109 -0.76172,0.37109 -0.0781,0 -0.27344,-0.0781 0.0195,-0.29297 0.0195,-0.48828 0,-0.19531 -0.0781,-0.60547 -0.0391,-0.17578 -0.0391,-0.3125 0,-0.0586 0.15625,-0.60547 l 0.0391,-0.42969 0.0781,-0.58593 -0.0586,-0.3711 1.64063,-1.05469 -1.58204,-1.09375 0.0391,-0.2539 0.13672,-0.70313 0.17578,-0.48828 q 0,-0.0391 -0.35157,-0.70312 -0.0586,-0.11719 -0.0586,-0.21485 0,-0.0586 0.29297,-0.82031 0.21484,-0.56641 0.23437,-1.05469 l -0.44921,-0.23437 q 0,-0.48828 0,-0.66406 -0.0391,-0.44922 -0.0391,-0.58594 0,-0.0586 0.21485,-0.85938 0.0195,-0.0781 0.0195,-0.3125 0,-0.68359 -0.0781,-1.52343 -0.0391,-0.3125 -0.0391,-0.54688 0,-0.19531 0.3125,-0.87891 0.0195,-0.60546 0.11719,-0.95703 l -0.41016,-0.48828 v -4.29687 q 0.25391,-0.19532 0.33203,-0.39063 0.11719,-0.33203 0.3125,-0.76172 -0.41015,-0.15625 -0.66406,-0.35156 0.13672,-0.54687 0.13672,-0.68359 0,-0.19532 -0.35156,-0.39063 -0.0586,-0.27344 -0.0586,-0.70312 l -0.0195,-0.80078 q 0,-0.15625 0.27344,-0.60547 0.0586,-0.0781 0.0586,-0.15625 0,-0.0391 -0.11718,-0.3711 -0.0977,-0.35156 -0.11719,-0.37109 0,0 -0.0586,-0.11719 l 1.46485,-1.03515 -0.9961,-1.347664 q -0.76171,-1.015625 -0.76171,-1.191406 0,-0.15625 0.11718,-0.644531 0.0586,-0.214844 0.0977,-0.644532 z" /></g><path
   d="m 145.77238,22.496845 c -1.01129,2.022611 -2.06753,3.992027 -3.32025,5.876921 -1.09876,1.636005 -2.30423,3.191666 -3.41804,4.817714 -1.1064,1.610164 -2.25289,3.192366 -3.42326,4.756566 -1.31861,1.628968 -2.46415,3.38752 -3.58426,5.155791 -0.94466,1.5872 -1.95464,3.134256 -2.98911,4.664519 -1.02866,1.726134 -2.33025,3.249526 -3.52682,4.854483 -1.18623,1.595018 -2.37588,3.186439 -3.4986,4.827027 -1.33812,1.635798 -1.83552,3.547964 -2.12182,5.593198 -0.20903,1.420986 -0.0785,0.730305 -0.38488,2.073311 0,0 -10.01066,4.76091 -10.01066,4.76091 v 0 c 0.41135,-1.215586 0.24498,-0.574789 0.47896,-1.927511 0.21054,-2.158132 0.53833,-4.321129 1.88976,-6.093225 1.17167,-1.600336 2.19658,-3.309428 3.49297,-4.821913 1.10918,-1.666395 2.51828,-3.087251 3.52916,-4.821631 1.00964,-1.55126 2.10183,-3.03994 2.98031,-4.669716 1.22885,-1.713785 2.21032,-3.611379 3.57921,-5.224308 1.19342,-1.533946 2.31941,-3.120917 3.41624,-4.724544 1.19504,-1.554448 2.21611,-3.243541 3.44808,-4.776118 1.22079,-1.870134 2.53669,-3.662756 3.29924,-5.790848 0,0 10.16377,-4.530626 10.16377,-4.530626 z"
   id="path4625"
   style="fill:#ffffff" /></svg>