<?xml version="1.0" encoding="UTF-8" standalone="no"?>
<svg
   xmlns:dc="http://purl.org/dc/elements/1.1/"
   xmlns:cc="http://creativecommons.org/ns#"
   xmlns:rdf="http://www.w3.org/1999/02/22-rdf-syntax-ns#"
   xmlns:svg="http://www.w3.org/2000/svg"
   xmlns="http://www.w3.org/2000/svg"
   xmlns:sodipodi="http://sodipodi.sourceforge.net/DTD/sodipodi-0.dtd"
   xmlns:inkscape="http://www.inkscape.org/namespaces/inkscape"
   id="Layer_1"
   version="1.1"
   width="100%"
   height="100%"
   viewBox="0 0 285.1 69.9"
   xml:space="preserve"
   inkscape:version="0.91 r13725"
   sodipodi:docname="logo001.svg"
   inkscape:export-filename="C:\Users\julia\Desktop\PROJECTS\Semantic\logo.png"
   inkscape:export-xdpi="44.809944"
   inkscape:export-ydpi="44.809944"><metadata
     id="metadata23"><rdf:RDF><cc:Work
         rdf:about=""><dc:format>image/svg+xml</dc:format><dc:type
           rdf:resource="http://purl.org/dc/dcmitype/StillImage" /><dc:title></dc:title></cc:Work></rdf:RDF></metadata><defs
     id="defs21" /><sodipodi:namedview
     pagecolor="#ffffff"
     bordercolor="#666666"
     borderopacity="1"
     objecttolerance="10"
     gridtolerance="10"
     guidetolerance="10"
     inkscape:pageopacity="0"
     inkscape:pageshadow="2"
     inkscape:window-width="1536"
     inkscape:window-height="798"
     id="namedview19"
     showgrid="false"
     inkscape:zoom="2.041389"
     inkscape:cx="74.628658"
     inkscape:cy="47.124495"
     inkscape:window-x="-8"
     inkscape:window-y="-8"
     inkscape:window-maximized="1"
     inkscape:current-layer="Layer_1" /><g
     id="g4194"
     style="fill:#ffffff"><g
       id="text4151"
       style="font-style:normal;font-weight:normal;font-size:34.66507721px;line-height:153.99999619%;font-family:sans-serif;letter-spacing:0px;word-spacing:0px;fill:#ffffff;fill-opacity:1;stroke:none;stroke-width:1px;stroke-linecap:butt;stroke-linejoin:miter;stroke-opacity:1"
       transform="scale(0.82668849,1.2096455)"><path
         id="path4176"
         style="font-style:normal;font-variant:normal;font-weight:normal;font-stretch:normal;font-size:55px;line-height:153.99999619%;font-family:'Arabic Typesetting';-inkscape-font-specification:'Arabic Typesetting';letter-spacing:0px;fill:#ffffff"
         d="m 106.68276,16.842143 q -1.10107,0.08057 -1.79931,0.268555 -0.67139,0.161133 -1.04737,0.537109 -0.37597,0.349122 -0.51025,0.993653 -0.13428,0.644531 -0.13428,1.638183 l 0,17.053223 q 0,0.913086 0.10742,1.503906 0.10742,0.590821 0.45655,0.939942 0.37597,0.322265 1.0205,0.456543 0.67139,0.134277 1.77246,0.134277 l 1.42334,0 q 1.55762,0 2.55127,-0.241699 0.99366,-0.268555 1.66504,-0.859375 0.69825,-0.617676 1.2085,-1.611328 0.51025,-0.993653 1.12793,-2.443848 l 1.02051,0.241699 q -0.21485,0.778809 -0.40284,1.665039 -0.18798,0.886231 -0.34912,1.745606 -0.16113,0.859375 -0.26855,1.611328 -0.10742,0.751953 -0.13428,1.235351 l -4.08203,0 q -1.77246,0 -3.06152,0 -1.28907,-0.02685 -2.20215,-0.02685 -0.91309,0 -1.58447,0 -0.67139,-0.02686 -1.18164,-0.02686 l -0.93995,0 q -0.53711,0 -1.18164,0.02686 -0.644528,0 -1.289059,0 -0.644532,0 -1.235352,0.02685 -0.563965,0 -0.939941,0 l -0.08057,-0.913085 q 1.101075,-0.08057 1.772461,-0.2417 0.698242,-0.187988 1.074219,-0.537109 0.375977,-0.375977 0.510254,-0.993652 0.134275,-0.644532 0.134275,-1.665039 l 0,-18.073731 q 0,-0.644531 -0.134275,-1.074219 -0.107422,-0.429687 -0.483398,-0.698242 -0.349122,-0.29541 -1.047364,-0.429687 -0.671386,-0.134278 -1.826172,-0.187989 l 0.08057,-0.966797 q 0.429687,0 1.047363,0.02686 0.644531,0 1.369629,0 0.725098,0 1.47705,0.02685 0.75195,0 1.39649,0 0.51025,0 1.15478,0 0.64453,-0.02685 1.28906,-0.02685 0.64453,0 1.2085,0 0.59082,-0.02686 0.9668,-0.02686 l 0.0806,0.913086 z" /><path
         id="path4178"
         style="font-style:normal;font-variant:normal;font-weight:normal;font-stretch:normal;font-size:55px;line-height:153.99999619%;font-family:'Arabic Typesetting';-inkscape-font-specification:'Arabic Typesetting';letter-spacing:0px;fill:#ffffff"
         d="m 124.13882,37.332866 q 0,0.913086 0.10742,1.503906 0.10742,0.590821 0.45654,0.939942 0.37598,0.322265 1.02051,0.456543 0.67139,0.134277 1.77246,0.134277 l 1.98731,0 q 1.55761,0 2.52441,-0.241699 0.99365,-0.268555 1.66504,-0.859375 0.67138,-0.617676 1.18164,-1.611328 0.53711,-0.993653 1.15478,-2.443848 l 1.04737,0.241699 q -0.21485,0.778809 -0.40283,1.665039 -0.18799,0.886231 -0.34913,1.745606 -0.16113,0.859375 -0.26855,1.611328 -0.10742,0.751953 -0.13428,1.235351 -5.34424,0 -8.67431,-0.02685 -3.30323,-0.02686 -4.94141,-0.02686 -0.4834,0 -1.15479,0.02686 -0.64453,0 -1.34277,0 -0.69824,0 -1.36963,0.02685 -0.64453,0 -1.10107,0 l -0.0806,-0.913085 q 1.23535,-0.08057 1.98731,-0.2417 0.75195,-0.187988 1.15478,-0.537109 0.40283,-0.375977 0.53711,-0.993652 0.13428,-0.644532 0.13428,-1.665039 l 0,-18.073731 q 0,-0.644531 -0.13428,-1.074219 -0.10742,-0.429687 -0.4834,-0.698242 -0.34912,-0.29541 -1.04736,-0.429687 -0.67139,-0.134278 -1.82617,-0.187989 l 0.0806,-0.966797 q 0.51026,0 1.15479,0.02686 0.67139,0 1.34277,0 0.69824,0 1.34278,0.02685 0.67138,0 1.23535,0 1.04736,0 4.40429,-0.02685 3.35694,-0.02686 8.54004,-0.02686 -0.16113,1.369629 -0.2417,2.873536 -0.0806,1.503906 -0.10742,3.1958 l -1.07422,0.02686 q -0.2417,-1.396485 -0.53711,-2.30957 -0.29541,-0.913086 -0.83252,-1.450196 -0.53711,-0.563965 -1.39648,-0.778808 -0.85938,-0.2417 -2.229,-0.2417 l -3.84034,0 q -0.80566,0 -1.04736,0.161133 -0.21484,0.161133 -0.21484,0.83252 l 0,9.291992 9.07715,-0.268555 0.18798,0.187989 -0.0537,2.229003 q -2.44385,-0.214843 -4.83398,-0.29541 -2.36328,-0.08057 -4.37744,-0.134277 l 0,8.083496 z" /><path
         id="path4180"
         style="font-style:normal;font-variant:normal;font-weight:normal;font-stretch:normal;font-size:55px;line-height:153.99999619%;font-family:'Arabic Typesetting';-inkscape-font-specification:'Arabic Typesetting';letter-spacing:0px;fill:#ffffff"
         d="m 154.59292,32.176616 -8.94287,0 -2.06787,5.290527 q -0.53711,1.530762 -0.53711,1.933594 0,0.698242 0.64453,0.966797 0.67138,0.268555 2.36328,0.349121 l -0.0806,0.966797 q -0.99365,0 -2.229,-0.02686 -1.23535,-0.02686 -2.44385,-0.02686 -0.99365,0 -2.06787,0.02686 -1.04736,0.02686 -2.04102,0.02686 l -0.0537,-0.913086 q 1.04737,-0.08057 1.71875,-0.241699 0.67139,-0.187988 1.15479,-0.644531 0.51025,-0.483399 0.93994,-1.289063 0.45654,-0.832519 1.04736,-2.202148 l 7.70752,-18.181153 q 0.32227,-0.805664 0.53711,-1.396484 0.2417,-0.617676 0.51026,-1.315918 l 1.69189,-0.214844 q 0.29541,1.289063 0.61768,2.363281 0.34912,1.074219 0.64453,1.96045 l 6.04248,17.509765 q 0.40283,1.181641 0.7251,1.853028 0.32226,0.671386 0.75195,1.047363 0.42969,0.349121 1.07422,0.483398 0.67138,0.134278 1.71875,0.214844 l -0.0806,0.966797 q -1.12793,0 -2.49756,-0.02686 -1.34277,-0.02686 -2.7124,-0.02686 -1.12793,0 -2.28271,0.02686 -1.15479,0.02686 -2.28272,0.02686 l -0.0806,-0.913086 q 1.50391,-0.107422 2.14844,-0.349121 0.64453,-0.268555 0.64453,-0.966797 0,-0.29541 -0.10742,-0.671387 -0.10742,-0.402832 -0.26855,-0.88623 l -1.90674,-5.720215 z m -8.3252,-1.557617 7.81494,0 -3.59863,-10.634766 -4.21631,10.634766 z" /><path
         id="path4182"
         style="font-style:normal;font-variant:normal;font-weight:normal;font-stretch:normal;font-size:55px;line-height:153.99999619%;font-family:'Arabic Typesetting';-inkscape-font-specification:'Arabic Typesetting';letter-spacing:0px;fill:#ffffff"
         d="m 171.94155,38.299663 q 0,0.644531 0.0806,1.101074 0.0806,0.429688 0.42969,0.725098 0.37597,0.29541 1.07421,0.456543 0.69825,0.134277 1.96045,0.161133 l -0.0537,0.966796 q -1.28906,0 -2.68554,-0.02685 -1.39649,-0.02686 -2.68555,-0.02686 -0.51026,0 -1.12793,0.02686 -0.61768,0 -1.23535,0 -0.59082,0 -1.12793,0.02685 -0.53711,0 -0.91309,0 l -0.0537,-0.913085 q 1.04736,-0.08057 1.66504,-0.2417 0.64453,-0.187988 0.99365,-0.537109 0.34912,-0.375977 0.45654,-0.993652 0.13428,-0.644532 0.13428,-1.665039 l 0,-18.073731 q 0,-0.644531 -0.10742,-1.074219 -0.10742,-0.429687 -0.45654,-0.698242 -0.32227,-0.29541 -0.99365,-0.429687 -0.67139,-0.134278 -1.79932,-0.187989 l 0.0537,-0.966797 q 0.42969,0 0.99365,0.02686 0.59082,0 1.26221,0 0.67139,0 1.36963,0.02685 0.69824,0 1.34277,0 1.07422,0 2.14844,-0.134277 1.10107,-0.161133 2.229,-0.161133 1.61133,0 3.22266,0.268555 1.61133,0.268555 2.90039,0.966797 1.31592,0.698242 2.12158,1.906738 0.80567,1.181641 0.80567,3.034668 0,1.235352 -0.40284,2.336426 -0.37597,1.101074 -1.07422,2.01416 -0.69824,0.88623 -1.66503,1.584473 -0.93995,0.671386 -2.09473,1.101074 0.85937,1.638183 1.69189,3.14209 0.83252,1.503906 1.53077,2.766113 0.72509,1.235352 1.28906,2.175293 0.59082,0.939941 0.96679,1.477051 0.51026,0.698242 0.88624,1.127929 0.37597,0.402832 0.80566,0.644532 0.45654,0.214843 1.04736,0.322265 0.59082,0.107422 1.53076,0.187989 l -0.0537,0.966796 q -0.80566,0 -2.12158,-0.02685 -1.28906,-0.02686 -2.49756,-0.02686 -0.37597,0 -0.83252,0.02686 -0.42968,0 -0.80566,0.02685 -0.26856,-0.563964 -0.83252,-1.638183 -0.56397,-1.101074 -1.34277,-2.524414 -0.77881,-1.450196 -1.71875,-3.14209 -0.93995,-1.691895 -1.96045,-3.4375 -0.16114,-0.268555 -0.32227,-0.483398 -0.13428,-0.214844 -0.37598,-0.349122 -0.21484,-0.161132 -0.59082,-0.241699 -0.37597,-0.08057 -0.99365,-0.08057 l -0.80566,0 q -0.21485,0 -0.53711,0 -0.29541,-0.02686 -0.7251,-0.05371 l 0,8.540039 z m 0,-9.829102 q 0.21484,0.02686 0.42969,0.05371 0.21484,0 0.42969,0 l 0.85937,0 q 3.16895,0 4.8877,-1.450195 1.7456,-1.450195 1.7456,-4.699707 0,-2.739258 -1.66504,-4.001465 -1.63818,-1.262207 -4.37744,-1.262207 -0.83252,0 -1.31592,0.161133 -0.45654,0.134277 -0.67138,0.429687 -0.21485,0.295411 -0.26856,0.725098 -0.0537,0.429688 -0.0537,0.966797 l 0,9.077148 z" /><path
         id="path4184"
         style="font-style:normal;font-variant:normal;font-weight:normal;font-stretch:normal;font-size:55px;line-height:153.99999619%;font-family:'Arabic Typesetting';-inkscape-font-specification:'Arabic Typesetting';letter-spacing:0px;fill:#ffffff"
         d="m 212.14419,42.086284 q -0.69824,-0.993652 -1.39649,-1.906738 -0.69824,-0.939942 -1.47705,-1.879883 l -14.47509,-17.160645 0,15.871582 q 0,1.262207 0.13427,1.987305 0.16114,0.698242 0.56397,1.074219 0.40283,0.349121 1.07422,0.483398 0.69824,0.107422 1.79931,0.187989 l -0.0537,0.966796 q -0.85937,0 -2.04101,-0.02685 -1.15479,-0.02686 -2.44385,-0.02686 -1.02051,0 -2.14844,0.02686 -1.10107,0.02685 -2.04101,0.02685 l -0.0806,-0.913085 q 1.07422,-0.107422 1.77246,-0.2417 0.69824,-0.161133 1.10107,-0.617675 0.42969,-0.456543 0.59082,-1.369629 0.16114,-0.913086 0.16114,-2.524414 l 0,-13.45459 q 0,-1.12793 -0.0269,-1.826172 -0.0268,-0.698242 -0.13428,-1.12793 -0.0806,-0.456543 -0.2417,-0.751953 -0.16113,-0.29541 -0.42968,-0.617676 -0.26856,-0.349121 -0.53711,-0.59082 -0.26856,-0.241699 -0.61768,-0.402832 -0.34912,-0.161133 -0.85937,-0.241699 -0.51026,-0.08057 -1.26221,-0.134278 l 0.0537,-0.966797 q 0.32227,0 0.93994,0.02686 0.64453,0 1.42334,0 0.77881,0 1.61133,0.02685 0.83252,0 1.55762,0 l 17.26806,20.222168 0,-15.549316 q 0,-1.262207 -0.16113,-1.960449 -0.13428,-0.725098 -0.53711,-1.074219 -0.40283,-0.375977 -1.10107,-0.483398 -0.69824,-0.134278 -1.79932,-0.214844 l 0.0537,-0.966797 q 0.85938,0 2.04102,0.02685 1.18164,0.02686 2.4707,0.02686 0.51025,0 1.07422,0 0.56396,-0.02686 1.10107,-0.02686 0.56397,-0.02685 1.04737,-0.02685 0.51025,-0.02686 0.88623,-0.02686 l 0.0268,0.913086 q -1.04736,0.107422 -1.71875,0.268555 -0.67138,0.161133 -1.07422,0.617676 -0.37597,0.456543 -0.5371,1.369629 -0.16114,0.913086 -0.16114,2.524414 l 0,20.195312 -1.39648,0.268555 z" /><path
         id="path4186"
         style="font-style:normal;font-variant:normal;font-weight:normal;font-stretch:normal;font-size:55px;line-height:153.99999619%;font-family:'Arabic Typesetting';-inkscape-font-specification:'Arabic Typesetting';letter-spacing:0px;fill:#ffffff"
         d="m 230.51333,15.929057 q 0.9668,0 2.33642,0.02686 1.39649,0.02685 2.76612,0.02685 1.36963,0 2.87353,-0.134277 1.50391,-0.161133 2.90039,-0.161133 2.90039,0 5.58594,0.617676 2.68555,0.617676 4.75342,2.041016 2.09473,1.423339 3.33008,3.73291 1.2622,2.282715 1.2622,5.612793 0,3.4375 -1.23535,6.096191 -1.23535,2.658692 -3.33008,4.484863 -2.09472,1.826172 -4.88769,2.792969 -2.76611,0.939942 -5.85449,0.939942 -1.36963,0 -2.92725,-0.187989 -1.55762,-0.161132 -2.92725,-0.161132 -0.5371,0 -1.15478,0.02686 -0.59082,0 -1.2085,0 -0.61767,0 -1.18164,0.02685 -0.56396,0 -0.99365,0 l -0.0806,-0.913085 q 1.12793,-0.08057 1.82618,-0.2417 0.69824,-0.161133 1.07421,-0.537109 0.37598,-0.375977 0.4834,-0.993652 0.13428,-0.644532 0.13428,-1.665039 l 0,-17.966309 q 0,-0.725098 -0.10742,-1.181641 -0.10742,-0.456543 -0.4834,-0.725097 -0.34912,-0.295411 -1.07422,-0.402832 -0.7251,-0.134278 -1.93359,-0.187989 l 0.0537,-0.966797 z m 6.66015,21.000977 q 0,0.778809 0.0537,1.450195 0.0537,0.644532 0.40283,1.12793 0.34912,0.483398 1.12793,0.751953 0.77881,0.268555 2.229,0.268555 2.60498,0 4.72656,-0.805664 2.14844,-0.83252 3.6792,-2.390137 1.53076,-1.557617 2.36328,-3.786621 0.85938,-2.229004 0.85938,-5.021973 0,-2.846679 -0.88623,-4.968261 -0.85938,-2.148438 -2.39014,-3.571778 -1.53076,-1.450195 -3.62549,-2.175293 -2.09472,-0.725097 -4.53857,-0.725097 -0.85938,0 -1.58447,0.107421 -0.7251,0.107422 -1.26221,0.295411 -0.53711,0.187988 -0.85938,0.402832 -0.29541,0.214843 -0.29541,0.456543 l 0,18.583984 z" /><path
         id="path4188"
         style="font-style:normal;font-variant:normal;font-weight:normal;font-stretch:normal;font-size:55px;line-height:153.99999619%;font-family:'Arabic Typesetting';-inkscape-font-specification:'Arabic Typesetting';letter-spacing:0px;fill:#ffffff"
         d="m 267.73501,18.883159 q 1.9873,0 3.41064,0.913086 1.42334,0.88623 2.30957,2.416992 0.91309,1.503906 1.34278,3.518067 0.42968,2.01416 0.42968,4.216308 0,2.84668 -0.56396,5.129395 -0.53711,2.282715 -1.61133,3.867187 -1.07422,1.584473 -2.65869,2.443848 -1.58447,0.859375 -3.65234,0.859375 -1.98731,0 -3.41065,-0.886231 -1.42334,-0.913086 -2.33642,-2.416992 -0.91309,-1.530762 -1.34278,-3.518066 -0.42969,-2.01416 -0.42969,-4.243164 0,-2.84668 0.53711,-5.129395 0.56397,-2.282715 1.63819,-3.867187 1.10107,-1.584473 2.68554,-2.443848 1.58448,-0.859375 3.65235,-0.859375 z m -0.67139,1.450195 q -0.88623,0 -1.71875,0.456543 -0.83252,0.456543 -1.45019,1.557617 -0.61768,1.101075 -0.99366,2.980958 -0.37597,1.853027 -0.37597,4.672851 0,3.115234 0.45654,5.183106 0.4834,2.067871 1.2085,3.330078 0.72509,1.235351 1.58447,1.772461 0.85937,0.510254 1.63818,0.510254 0.88623,0 1.6919,-0.456543 0.83252,-0.456543 1.45019,-1.557618 0.64453,-1.101074 0.99365,-2.954101 0.37598,-1.879883 0.37598,-4.699707 0,-3.088379 -0.4834,-5.15625 -0.45654,-2.094727 -1.18164,-3.330078 -0.69824,-1.262207 -1.55761,-1.772461 -0.85938,-0.53711 -1.63819,-0.53711 z" /><path
         id="path4190"
         style="font-style:normal;font-variant:normal;font-weight:normal;font-stretch:normal;font-size:55px;line-height:153.99999619%;font-family:'Arabic Typesetting';-inkscape-font-specification:'Arabic Typesetting';letter-spacing:0px;fill:#ffffff"
         d="m 278.61147,34.217632 q 0.53711,1.396484 1.12793,2.578125 0.61768,1.18164 1.4502,2.067871 0.85937,0.859375 1.9873,1.369629 1.12793,0.483398 2.71241,0.483398 1.04736,0 1.93359,-0.349121 0.88623,-0.349121 1.55762,-0.993652 0.67138,-0.644532 1.04736,-1.503907 0.37598,-0.88623 0.37598,-1.933593 0,-1.315918 -0.4834,-2.25586 -0.4834,-0.939941 -1.28907,-1.611328 -0.80566,-0.698242 -1.82617,-1.208496 -1.0205,-0.510254 -2.09472,-0.993652 -1.2085,-0.53711 -2.44385,-1.181641 -1.2085,-0.644531 -2.17529,-1.530762 -0.9668,-0.88623 -1.58448,-2.041015 -0.61767,-1.154785 -0.61767,-2.739258 0,-1.691895 0.67138,-2.980957 0.69825,-1.315918 1.85303,-2.202149 1.18164,-0.88623 2.7124,-1.342773 1.55762,-0.456543 3.30323,-0.456543 1.69189,0 3.11523,0.268555 1.4502,0.241699 3.08838,0.671386 -0.0806,0.859375 -0.13428,1.611329 -0.0537,0.725097 -0.0806,1.450195 0,0.698242 -0.0269,1.450195 0,0.725098 0,1.584473 l -1.12793,0.107422 q -0.2417,-2.84668 -1.7456,-4.243164 -1.47706,-1.42334 -4.00147,-1.42334 -0.9668,0 -1.77246,0.29541 -0.80566,0.29541 -1.39648,0.859375 -0.59083,0.563965 -0.93995,1.342773 -0.32226,0.778809 -0.32226,1.745606 0,1.289062 0.40283,2.175293 0.42969,0.859375 1.15479,1.503906 0.72509,0.644531 1.66503,1.12793 0.9668,0.456543 2.01416,0.913086 1.28907,0.563965 2.57813,1.235351 1.31592,0.671387 2.33643,1.584473 1.04736,0.913086 1.69189,2.121582 0.64453,1.208496 0.64453,2.84668 0,1.826172 -0.75195,3.249511 -0.75196,1.396485 -1.98731,2.390137 -1.23535,0.966797 -2.84668,1.477051 -1.61132,0.510254 -3.30322,0.510254 -1.47705,0 -3.06152,-0.29541 -1.58448,-0.29541 -3.35694,-0.805664 -0.18798,-1.772461 -0.45654,-3.330079 -0.26855,-1.557617 -0.7251,-3.330078 l 1.12793,-0.268554 z" /><path
         id="path4192"
         style="font-style:normal;font-variant:normal;font-weight:normal;font-stretch:normal;font-size:55px;line-height:153.99999619%;font-family:'Arabic Typesetting';-inkscape-font-specification:'Arabic Typesetting';letter-spacing:0px;fill:#ffffff"
         d="m 306.91714,16.842143 q -1.10108,0.08057 -1.79932,0.268555 -0.67139,0.161133 -1.04736,0.537109 -0.37598,0.349122 -0.51026,0.993653 -0.13427,0.644531 -0.13427,1.638183 l 0,17.053223 q 0,0.913086 0.10742,1.503906 0.10742,0.590821 0.45654,0.939942 0.37598,0.322265 1.02051,0.456543 0.67139,0.134277 1.77246,0.134277 l 1.42334,0 q 1.55762,0 2.55127,-0.241699 0.99365,-0.268555 1.66504,-0.859375 0.69824,-0.617676 1.20849,-1.611328 0.51026,-0.993653 1.12793,-2.443848 l 1.02051,0.241699 q -0.21484,0.778809 -0.40283,1.665039 -0.18799,0.886231 -0.34912,1.745606 -0.16113,0.859375 -0.26856,1.611328 -0.10742,0.751953 -0.13427,1.235351 l -4.08203,0 q -1.77247,0 -3.06153,0 -1.28906,-0.02685 -2.20215,-0.02685 -0.91308,0 -1.58447,0 -0.67139,-0.02686 -1.18164,-0.02686 l -0.93994,0 q -0.53711,0 -1.18164,0.02686 -0.64453,0 -1.28906,0 -0.64454,0 -1.23536,0.02685 -0.56396,0 -0.93994,0 l -0.0806,-0.913085 q 1.10107,-0.08057 1.77246,-0.2417 0.69824,-0.187988 1.07422,-0.537109 0.37597,-0.375977 0.51025,-0.993652 0.13428,-0.644532 0.13428,-1.665039 l 0,-18.073731 q 0,-0.644531 -0.13428,-1.074219 -0.10742,-0.429687 -0.4834,-0.698242 -0.34912,-0.29541 -1.04736,-0.429687 -0.67139,-0.134278 -1.82617,-0.187989 l 0.0806,-0.966797 q 0.42969,0 1.04737,0.02686 0.64453,0 1.36962,0 0.7251,0 1.47706,0.02685 0.75195,0 1.39648,0 0.51025,0 1.15479,0 0.64453,-0.02685 1.28906,-0.02685 0.64453,0 1.20849,0 0.59082,-0.02686 0.9668,-0.02686 l 0.0806,0.913086 z" /></g><g
       style="fill:#ffffff"
       transform="translate(-5.1957769,0.7876521)"
       id="g8170"><path
         d="m 42.472166,57.500247 -1.201049,-0.07445 -1.182813,-0.133546 -1.162881,-0.191569 -1.141945,-0.247623 -1.120214,-0.302361 -1.096371,-0.355407 -1.071663,-0.40724 -1.045538,-0.45745 -1.017957,-0.505965 -0.988856,-0.553304 -0.958507,-0.598845 -0.926394,-0.642829 -0.89352,-0.685639 -0.858363,-0.726615 -0.8222,-0.76614 -0.784447,-0.804073 -0.745414,-0.840451 -0.704822,-0.875375 -0.662743,-0.908572 -0.619142,-0.940039 -0.574364,-0.970504 -0.527752,-0.998685 -0.480101,-1.02583 -0.43079,-1.051143 -0.380372,-1.075382 -0.328361,-1.097583 -0.274967,-1.118814 -0.220049,-1.137798 -0.163817,-1.156333 -0.10634,-1.173069 -0.04734,-1.188007 0.0137,-1.202323 0.07423,-1.200353 0.133781,-1.181644 0.191397,-1.161935 0.247975,-1.141256 0.302546,-1.119264 0.355664,-1.095438 0.407536,-1.07106 0.45792,-1.044503 0.506332,-1.017048 0.553705,-0.988311 0.599244,-0.957536 0.643607,-0.925896 0.685963,-0.892562 0.727143,-0.857602 0.766833,-0.821605 0.804691,-0.78374 0.841025,-0.744873 0.875872,-0.704347 0.909196,-0.661952 0.940859,-0.618728 0.970896,-0.573947 0.999548,-0.527231 1.026712,-0.479581 1.052043,-0.430478 1.076024,-0.380131 1.098482,-0.32795 1.119764,-0.27494 1.1389,-0.219752 1.157344,-0.163837 1.173747,-0.106089 1.189007,-0.04717 1.20361,0.01356 1.201049,0.07414 1.182502,0.133545 1.162915,0.191258 1.142084,0.247796 1.119902,0.30205 1.096371,0.355718 1.071525,0.407102 1.045399,0.457589 1.017647,0.505826 0.98882,0.553304 0.958231,0.59881 0.926567,0.642968 0.893036,0.685362 0.858085,0.726616 0.822339,0.765828 0.784447,0.804557 0.745102,0.839967 0.704546,0.87541 0.662432,0.908399 0.619003,0.94035 0.573914,0.970054 0.52789,0.998997 0.47979,1.025657 0.431067,1.051281 0.379956,1.075244 0.328362,1.097582 0.274966,1.118642 0.22005,1.138282 0.163644,1.15616 0.106339,1.173103 0.04706,1.188284 -0.01311,1.202462 -0.07468,1.199764 -0.13347,1.181783 -0.191569,1.162073 -0.247664,1.141291 -0.302719,1.119091 -0.35563,1.095749 -0.40757,1.070749 -0.457609,1.044642 -0.506193,1.016943 -0.553394,0.988139 -0.599244,0.957847 -0.643296,0.925723 -0.685963,0.892424 -0.727004,0.858051 -0.76666,0.821743 -0.804379,0.783914 -0.840887,0.744735 -0.875872,0.704173 -0.909023,0.661952 -0.940582,0.618866 -0.214029,0.126457 0.386428,0 2.175405,0 C 63.909488,49.773012 67.838748,42.896152 68.12548,35.044259 68.624579,21.37844 57.907216,9.8548102 44.230416,9.3558996 30.553892,8.8570237 19.021007,19.569008 18.521597,33.235311 c -0.499099,13.665854 10.222208,25.190383 23.898697,25.68912 0.272856,0.0099 0.54495,0.01522 0.815834,0.01598 l 0.43906,-1.426743 -1.203022,-0.01342 z"
         style="fill:#ffffff;fill-rule:evenodd"
         id="path4898"
         inkscape:connector-curvature="0" /><g
         style="fill:#ffffff"
         id="g7952"><g
           transform="matrix(0.34604399,0,0,0.34579327,-50.472827,-109.48398)"
           id="g4900"
           style="fill:#ffffff"><path
             inkscape:connector-curvature="0"
             id="path4902"
             style="fill:#ffffff;fill-rule:evenodd"
             d="m 249.5195,454.0812 c -13.8814,-0.5068 -25.5891,10.3759 -26.095,24.258 -0.5071,13.8821 10.3747,25.5894 24.2572,26.0961 13.8764,0.5065 25.5802,-10.3767 26.0878,-24.2588 0.5068,-13.8818 -10.3739,-25.5888 -24.25,-26.0953 z m -0.1505,4.1187 -1.0864,-0.0127 -1.0712,0.0426 -1.0566,0.0956 -1.0415,0.1478 -1.0254,0.1977 -1.0061,0.2472 -0.9882,0.2953 -0.9688,0.3428 -0.9476,0.3878 -0.9239,0.4324 -0.9007,0.4751 -0.8748,0.5178 -0.8484,0.5581 -0.8196,0.5974 -0.7894,0.6351 -0.7584,0.6726 -0.7265,0.7076 -0.691,0.7416 -0.656,0.7735 -0.618,0.8053 -0.5803,0.835 -0.5392,0.8627 -0.4985,0.8902 -0.456,0.9174 -0.4125,0.9413 -0.3664,0.9636 -0.32,0.9855 -0.2719,1.008 -0.2233,1.0281 -0.172,1.0468 -0.1205,1.0654 -0.0668,1.085 -0.0126,1.086 0.0425,1.0715 0.0956,1.0564 0.1478,1.0418 0.1978,1.0251 0.2474,1.0069 0.295,0.988 0.3425,0.9688 0.3876,0.947 0.4323,0.9237 0.4752,0.9007 0.5177,0.8751 0.5579,0.8482 0.5977,0.8196 0.6355,0.7902 0.6721,0.7584 0.7073,0.7254 0.7419,0.6916 0.7737,0.6559 0.8051,0.6183 0.8344,0.5793 0.8633,0.5397 0.8913,0.4991 0.9165,0.4562 0.9402,0.4117 0.9641,0.3664 0.9866,0.3203 1.0075,0.2725 1.0278,0.2227 1.0476,0.1728 1.066,0.1203 1.0838,0.0676 1.0838,0.0118 1.0715,-0.0426 1.0564,-0.0959 1.041,-0.1475 1.0239,-0.198 1.0064,-0.2472 0.9888,-0.2961 0.9679,-0.3417 0.9457,-0.3878 0.9245,-0.4323 0.9004,-0.476 0.8745,-0.517 0.8476,-0.5584 0.8202,-0.5974 0.7897,-0.6356 0.7578,-0.6713 0.7243,-0.707 0.6913,-0.7424 0.6565,-0.7751 0.6182,-0.8045 0.579,-0.8345 0.54,-0.8638 0.4991,-0.8913 0.4559,-0.9158 0.4115,-0.9407 0.3667,-0.9644 0.3205,-0.9874 0.2722,-1.0067 0.2228,-1.0278 0.1727,-1.0473 0.1203,-1.066 0.0676,-1.083 0.0118,-1.0852 -0.0426,-1.0718 -0.0958,-1.0578 -0.1472,-1.041 -0.1981,-1.0248 -0.2475,-1.0072 -0.2955,-0.9891 -0.3417,-0.9676 -0.3878,-0.9468 -0.4323,-0.9245 -0.476,-0.9012 -0.5167,-0.8749 -0.5584,-0.8481 -0.5974,-0.8202 -0.6347,-0.7894 -0.6716,-0.7578 -0.7078,-0.7263 -0.7413,-0.6913 -0.7738,-0.6556 -0.8047,-0.6183 -0.8353,-0.5804 -0.8625,-0.5394 -0.8902,-0.4986 -0.9154,-0.4554 -0.9408,-0.412 -0.964,-0.3667 -0.9861,-0.3202 -1.0066,-0.2719 -1.0276,-0.2234 -1.0459,-0.1722 -1.0649,-0.1203 -1.0835,-0.0667 z" /><path
             inkscape:connector-curvature="0"
             id="path4904"
             style="fill:#ffffff;fill-rule:evenodd"
             d="m 293.1846,326.2576 c -13.8809,-0.5067 -25.5888,10.376 -26.0956,24.2578 -0.5059,13.8824 10.3756,25.5896 24.258,26.0964 13.8765,0.5062 25.5814,-10.3768 26.0879,-24.2589 0.5067,-13.8821 -10.3736,-25.589 -24.2503,-26.0953 z m -0.1506,4.1187 -1.0863,-0.0126 -1.0712,0.0426 -1.0566,0.0955 -1.0415,0.1478 -1.0254,0.1978 -1.0061,0.2472 -0.988,0.2953 -0.9687,0.3427 -0.9476,0.3879 -0.924,0.4323 -0.9006,0.4752 -0.8748,0.5177 -0.8485,0.5582 -0.8196,0.5974 -0.7894,0.635 -0.7583,0.6727 -0.7268,0.7078 -0.6913,0.7416 -0.6557,0.7732 -0.618,0.8053 -0.5803,0.835 -0.5392,0.8628 -0.4985,0.8902 -0.456,0.9174 -0.4125,0.9413 -0.3664,0.9635 -0.3203,0.9861 -0.2719,1.0077 -0.2233,1.0279 -0.1722,1.047 -0.1206,1.0654 -0.0668,1.0844 -0.0126,1.0861 0.0426,1.0715 0.0956,1.0564 0.1477,1.0415 0.1981,1.0248 0.2472,1.0069 0.2952,0.988 0.3428,0.9691 0.3879,0.9473 0.4323,0.9243 0.4752,0.9003 0.5177,0.8751 0.5578,0.8482 0.5977,0.8196 0.6356,0.7903 0.6721,0.7583 0.7073,0.7254 0.7419,0.6916 0.7737,0.656 0.805,0.6182 0.8345,0.5793 0.8633,0.5397 0.8912,0.4991 0.9166,0.4562 0.9402,0.4118 0.9641,0.3664 0.9866,0.3202 1.0075,0.2725 1.0278,0.2228 1.0475,0.1727 1.066,0.1204 1.0839,0.0675 1.0841,0.0118 1.0714,-0.0425 1.0564,-0.0959 1.041,-0.1475 1.024,-0.198 1.0063,-0.2472 0.9883,-0.2959 0.9682,-0.3419 0.9459,-0.3881 0.9246,-0.4324 0.9003,-0.476 0.8746,-0.5169 0.8476,-0.5584 0.8201,-0.5974 0.7897,-0.6356 0.7581,-0.6718 0.7246,-0.7068 0.691,-0.7418 0.6565,-0.7752 0.6182,-0.8045 0.579,-0.8344 0.54,-0.8639 0.4991,-0.8913 0.4557,-0.9152 0.4112,-0.9407 0.3669,-0.9649 0.3203,-0.9869 0.2722,-1.007 0.2227,-1.028 0.1728,-1.0474 0.1203,-1.066 0.0676,-1.083 0.0118,-1.0855 -0.0426,-1.0717 -0.0959,-1.0578 -0.1472,-1.041 -0.198,-1.0248 -0.2475,-1.0072 -0.2955,-0.9891 -0.3417,-0.9676 -0.3878,-0.9468 -0.4324,-0.9246 -0.476,-0.9012 -0.5166,-0.8748 -0.5584,-0.8482 -0.5974,-0.8201 -0.6348,-0.7894 -0.6715,-0.7578 -0.7078,-0.7263 -0.7414,-0.6913 -0.7737,-0.6557 -0.8048,-0.6182 -0.8352,-0.5804 -0.8622,-0.5392 -0.8905,-0.4985 -0.9157,-0.4557 -0.9408,-0.412 -0.964,-0.3667 -0.9856,-0.3203 -1.0066,-0.2716 -1.0281,-0.2233 -1.0459,-0.1722 -1.0649,-0.1203 -1.0836,-0.0668 z" /></g><g
           style="fill:#ffffff"
           id="g7943"><g
             style="fill:#ffffff"
             id="g4906"
             transform="matrix(0.34604399,0,0,0.34579327,-50.472827,-109.48398)"><path
               d="m 230.9281,395.926 c -0.0218,-13.8908 -11.342,-25.176 -25.2332,-25.1534 -13.8911,0.0216 -25.1757,11.3411 -25.1538,25.233 0.0219,13.8858 11.3425,25.1671 25.2337,25.1461 13.8909,-0.0218 25.1752,-11.3402 25.1533,-25.2257 z m -4.1214,0.006 -0.0287,-1.086 -0.0833,-1.0689 -0.1357,-1.0522 -0.1873,-1.0352 -0.2366,-1.0171 -0.2853,-0.9959 -0.3327,-0.9764 -0.3794,-0.955 -0.4236,-0.9321 -0.4672,-0.9069 -0.5091,-0.8819 -0.5506,-0.8545 -0.59,-0.8266 -0.6282,-0.7963 -0.6646,-0.7647 -0.701,-0.7322 -0.7347,-0.699 -0.7674,-0.6624 -0.7978,-0.626 -0.8283,-0.5869 -0.8565,-0.5482 -0.8826,-0.5059 -0.9085,-0.4643 -0.9341,-0.4207 -0.9563,-0.3765 -0.9767,-0.3295 -0.997,-0.2822 -1.0177,-0.2334 -1.0358,-0.184 -1.0525,-0.132 -1.0693,-0.0799 -1.0867,-0.0254 -1.0857,0.0287 -1.0691,0.0833 -1.0519,0.1357 -1.0355,0.1873 -1.0168,0.2366 -0.9967,0.2856 -0.9761,0.3324 -0.955,0.3791 -0.9316,0.4234 -0.9066,0.4671 -0.8819,0.5091 -0.8547,0.5507 -0.8264,0.5897 -0.7962,0.6285 -0.7655,0.6652 -0.7322,0.7005 -0.698,0.7343 -0.6629,0.7677 -0.626,0.7981 -0.5871,0.828 -0.5471,0.8559 -0.5065,0.8832 -0.4648,0.9097 -0.421,0.9332 -0.3757,0.9552 -0.3294,0.9774 -0.2825,0.998 -0.234,1.0172 -0.1834,1.0355 -0.1328,1.0534 -0.0797,1.0698 -0.0263,1.0857 0.0295,1.0835 0.0833,1.0691 0.136,1.0519 0.187,1.0347 0.2368,1.0157 0.2854,0.9962 0.3335,0.9768 0.3782,0.9543 0.4236,0.9302 0.4672,0.9074 0.5099,0.8816 0.5498,0.8543 0.5903,0.8258 0.6281,0.7968 0.6652,0.7649 0.6996,0.7317 0.7341,0.6969 0.7682,0.6626 0.7995,0.6265 0.8274,0.5872 0.8559,0.5468 0.8838,0.5068 0.9096,0.4648 0.9324,0.4208 0.9557,0.3753 0.9776,0.3297 0.9989,0.2828 1.0163,0.2337 1.0356,0.1834 1.0531,0.1328 1.0698,0.0797 1.0848,0.0263 1.0848,-0.0295 1.0694,-0.0833 1.0533,-0.1361 1.0347,-0.1867 1.0165,-0.2369 0.997,-0.2856 0.9771,-0.333 0.954,-0.3782 0.9313,-0.4236 0.9074,-0.4672 0.8824,-0.51 0.8546,-0.5495 0.8263,-0.5903 0.7968,-0.6282 0.7647,-0.6643 0.7317,-0.7 0.6987,-0.7349 0.6626,-0.7671 0.6258,-0.7981 0.5872,-0.8278 0.5481,-0.8567 0.5063,-0.8824 0.4642,-0.9085 0.4203,-0.9322 0.3759,-0.9557 0.3297,-0.9773 0.2825,-0.9976 0.2334,-1.0163 0.1841,-1.0353 0.1323,-1.0517 0.0797,-1.0687 0.0254,-1.0853 z"
               style="fill:#ffffff;fill-rule:evenodd"
               id="path4908"
               inkscape:connector-curvature="0" /><path
               d="m 360.3192,434.6959 c -0.0218,-13.8902 -11.342,-25.1757 -25.2329,-25.1539 -13.8914,0.0227 -25.176,11.3419 -25.1541,25.2338 0.0221,13.8858 11.3425,25.1683 25.2337,25.1461 13.8911,-0.0218 25.1755,-11.3399 25.1533,-25.226 z m -4.1214,0.006 -0.0287,-1.086 -0.0833,-1.0688 -0.1357,-1.0523 -0.1873,-1.0351 -0.2367,-1.0171 -0.2853,-0.996 -0.3326,-0.976 -0.3794,-0.955 -0.4236,-0.9322 -0.4672,-0.9069 -0.5091,-0.8819 -0.5507,-0.8545 -0.59,-0.8266 -0.6281,-0.7963 -0.6646,-0.7646 -0.7011,-0.7323 -0.7349,-0.6993 -0.7674,-0.6626 -0.7976,-0.6257 -0.8282,-0.5869 -0.8565,-0.5482 -0.8826,-0.506 -0.9085,-0.4643 -0.9341,-0.4207 -0.9563,-0.3764 -0.9768,-0.3295 -0.9975,-0.2825 -1.0174,-0.2334 -1.0355,-0.184 -1.0529,-0.1323 -1.0692,-0.0799 -1.0861,-0.0255 -1.0858,0.0287 -1.0691,0.0834 -1.0519,0.1357 -1.0352,0.1873 -1.0165,0.2369 -0.9968,0.2853 -0.976,0.3326 -0.9553,0.3795 -0.9319,0.4236 -0.9071,0.4672 -0.8816,0.509 -0.8548,0.5507 -0.8263,0.5898 -0.7963,0.6284 -0.7654,0.6652 -0.7323,0.7005 -0.6979,0.7343 -0.6629,0.7677 -0.626,0.7981 -0.5872,0.8281 -0.5471,0.8558 -0.5065,0.8832 -0.4647,0.9097 -0.4211,0.9333 -0.3756,0.9551 -0.3295,0.9774 -0.2824,0.9981 -0.234,1.0171 -0.1835,1.0355 -0.1327,1.0534 -0.0797,1.0698 -0.0263,1.0857 0.0295,1.0838 0.0833,1.0691 0.136,1.0519 0.187,1.0347 0.2368,1.0156 0.2854,0.9963 0.3332,0.9763 0.3785,0.9545 0.4238,0.9305 0.4672,0.9074 0.5099,0.8816 0.5499,0.8543 0.5902,0.8257 0.6282,0.7969 0.6652,0.7649 0.7002,0.732 0.7337,0.6971 0.7677,0.6624 0.7995,0.6265 0.8274,0.5872 0.8559,0.5468 0.8838,0.5068 0.9096,0.4647 0.9319,0.4206 0.9557,0.3751 0.9781,0.3299 0.9984,0.2825 1.0165,0.2337 1.0358,0.1835 1.0532,0.1328 1.0698,0.0796 1.0847,0.0263 1.0852,-0.0295 1.0693,-0.0833 1.0534,-0.1361 1.0346,-0.1867 1.0165,-0.2369 0.9971,-0.2856 0.9771,-0.333 0.9539,-0.3782 0.9314,-0.4236 0.9074,-0.4672 0.8824,-0.51 0.8545,-0.5495 0.8263,-0.5903 0.7968,-0.6282 0.7647,-0.6643 0.7317,-0.6999 0.6988,-0.735 0.6626,-0.7671 0.6257,-0.7981 0.5872,-0.8278 0.5482,-0.8567 0.506,-0.8821 0.4642,-0.9088 0.4205,-0.9324 0.3759,-0.9558 0.3298,-0.9773 0.2825,-0.997 0.2331,-1.0163 0.184,-1.0358 0.1323,-1.0518 0.0797,-1.0687 0.0255,-1.0853 z"
               style="fill:#ffffff;fill-rule:evenodd"
               id="path4910"
               inkscape:connector-curvature="0" /></g><g
             style="fill:#ffffff"
             id="g4912"
             transform="matrix(0.34604399,0,0,0.34579327,-50.472827,-109.48398)"><path
               d="m 274.9826,412.1373 -25.6106,-23.5841 12.8671,0 0,-8.3964 -26.6048,0 -0.0457,8.3964 22.2744,20.6912 -22.2287,30.9222 0,8.5619 24.9072,0 0,-8.5697 -5.9123,0.008 20.3534,-28.0293 z"
               style="fill:#ffffff;fill-rule:evenodd"
               id="path4914"
               inkscape:connector-curvature="0" /><path
               d="m 306.198,388.5532 0,-8.3964 -34.0002,0 0,8.3964 34.0002,0 z m -34.0002,60.1753 34.0002,0 0,-8.5619 -2.9488,0 -31.0514,0 0,8.5619 z"
               style="fill:#ffffff;fill-rule:evenodd"
               id="path4916"
               inkscape:connector-curvature="0" /></g><path
             inkscape:connector-curvature="0"
             id="path7941"
             style="fill:#ffffff;fill-rule:evenodd"
             d="m 66.684004,34.99116 -0.07445,1.201049 -0.133546,1.182813 -0.191569,1.162881 -0.247623,1.141945 -0.302361,1.120214 -0.355407,1.096371 -0.40724,1.071663 -0.45745,1.045538 -0.505965,1.017957 -0.553304,0.988856 -0.598845,0.958507 -0.642829,0.926394 -0.685639,0.89352 -0.726615,0.858363 -0.76614,0.8222 -0.804073,0.784447 -0.840451,0.745414 -0.875375,0.704822 -0.908572,0.662743 -0.940039,0.619142 -0.970504,0.574364 -0.998685,0.527752 -1.02583,0.480101 -1.051143,0.43079 -1.075382,0.380372 -1.097583,0.328361 -1.118814,0.274967 -1.137798,0.220049 -1.156333,0.163817 -1.173069,0.10634 -1.188007,0.04734 -1.202323,-0.0137 -1.200353,-0.07423 -1.181644,-0.133781 -1.161935,-0.191397 -1.141256,-0.247975 -1.119264,-0.302546 -1.095438,-0.355664 -1.07106,-0.407536 -1.044503,-0.45792 -1.017048,-0.506332 -0.988311,-0.553705 -0.957536,-0.599244 -0.925896,-0.643607 -0.892562,-0.685963 -0.857602,-0.727143 -0.821605,-0.766833 -0.78374,-0.804691 -0.744873,-0.841025 -0.704347,-0.875872 -0.661952,-0.909196 -0.618728,-0.940859 -0.573947,-0.970896 -0.527231,-0.999548 -0.479581,-1.026712 -0.430478,-1.052043 -0.380131,-1.076024 -0.32795,-1.098482 -0.27494,-1.119764 -0.219752,-1.1389 -0.163837,-1.157344 -0.106089,-1.173747 -0.04717,-1.189007 0.01356,-1.20361 0.07414,-1.201049 0.133545,-1.182502 0.191258,-1.162915 0.247796,-1.142084 0.30205,-1.119902 0.355718,-1.096371 0.407102,-1.071525 0.457589,-1.045399 0.505826,-1.017647 0.553304,-0.98882 0.59881,-0.958231 0.642968,-0.926567 0.685362,-0.893036 0.726616,-0.858085 0.765828,-0.822339 0.804557,-0.784447 0.839967,-0.745102 0.87541,-0.704546 0.908399,-0.662432 0.94035,-0.619003 0.970054,-0.573914 0.998997,-0.52789 1.025657,-0.47979 1.051281,-0.431067 1.075244,-0.379956 1.097582,-0.328362 1.118642,-0.274966 1.138282,-0.22005 1.15616,-0.163644 1.173103,-0.106339 1.188284,-0.04706 1.202462,0.01311 1.199764,0.07468 1.181783,0.13347 1.162073,0.191569 1.141291,0.247664 1.119091,0.302719 1.095749,0.35563 1.070749,0.40757 1.044642,0.457609 1.016943,0.506193 0.988139,0.553394 0.957847,0.599244 0.925723,0.643296 0.892424,0.685963 0.858051,0.727004 0.821743,0.76666 0.783914,0.804379 0.744735,0.840887 0.704173,0.875872 0.661952,0.909023 0.618866,0.940582 0.126457,0.214029 0,-0.386428 0,-2.175405 C 58.956769,13.553838 52.079909,9.6245778 44.228016,9.3378458 30.562197,8.8387468 19.038567,19.55611 18.539657,33.23291 c -0.498876,13.676524 10.213108,25.209409 23.879411,25.708819 13.665854,0.499099 25.190383,-10.222208 25.68912,-23.898697 0.0099,-0.272856 0.01522,-0.54495 0.01598,-0.815834 l -1.426743,-0.43906 -0.01342,1.203022 z" /></g></g></g></g></svg>