<?xml version="1.0" encoding="UTF-8" standalone="no"?>
<svg
   xmlns:dc="http://purl.org/dc/elements/1.1/"
   xmlns:cc="http://creativecommons.org/ns#"
   xmlns:rdf="http://www.w3.org/1999/02/22-rdf-syntax-ns#"
   xmlns:svg="http://www.w3.org/2000/svg"
   xmlns="http://www.w3.org/2000/svg"
   xmlns:sodipodi="http://sodipodi.sourceforge.net/DTD/sodipodi-0.dtd"
   xmlns:inkscape="http://www.inkscape.org/namespaces/inkscape"
   id="Layer_1"
   version="1.1"
   width="100%"
   height="100%"
   viewBox="0 0 285.1 69.9"
   xml:space="preserve"
   inkscape:version="0.91 r13725"
   sodipodi:docname="logo2.svg"
   inkscape:export-filename="C:\Users\julia\Desktop\PROJECTS\Semantic\logo.png"
   inkscape:export-xdpi="44.809944"
   inkscape:export-ydpi="44.809944"><metadata
     id="metadata23"><rdf:RDF><cc:Work
         rdf:about=""><dc:format>image/svg+xml</dc:format><dc:type
           rdf:resource="http://purl.org/dc/dcmitype/StillImage" /><dc:title></dc:title></cc:Work></rdf:RDF></metadata><defs
     id="defs21" /><sodipodi:namedview
     pagecolor="#ffffff"
     bordercolor="#666666"
     borderopacity="1"
     objecttolerance="10"
     gridtolerance="10"
     guidetolerance="10"
     inkscape:pageopacity="0"
     inkscape:pageshadow="2"
     inkscape:window-width="1536"
     inkscape:window-height="798"
     id="namedview19"
     showgrid="false"
     inkscape:zoom="2.041389"
     inkscape:cx="74.628658"
     inkscape:cy="47.124495"
     inkscape:window-x="-8"
     inkscape:window-y="-8"
     inkscape:window-maximized="1"
     inkscape:current-layer="Layer_1" /><text
     sodipodi:linespacing="154%"
     id="text4151"
     y="41.600307"
     x="84.070457"
     style="font-style:normal;font-weight:normal;font-size:34.66507721px;line-height:153.99999619%;font-family:sans-serif;letter-spacing:0px;word-spacing:0px;fill:#000000;fill-opacity:1;stroke:none;stroke-width:1px;stroke-linecap:butt;stroke-linejoin:miter;stroke-opacity:1;"
     xml:space="preserve"
     transform="scale(0.82668849,1.2096455)"><tspan
       style="font-style:normal;font-variant:normal;font-weight:normal;font-stretch:normal;font-size:55px;line-height:153.99999619%;font-family:'Arabic Typesetting';-inkscape-font-specification:'Arabic Typesetting';letter-spacing:0px;fill:#000000;"
       y="41.600307"
       x="84.070457"
       id="tspan4153"
       sodipodi:role="line"
       dx="0 0"
       dy="0 0.10999999"> LEARN D0SL</tspan></text>
<g
     id="g8170"
     transform="translate(-5.1957769,0.7876521)"
     style="fill:#000000"><path
       inkscape:connector-curvature="0"
       id="path4898"
       style="fill:#000000;fill-rule:evenodd"
       d="m 42.472166,57.500247 -1.201049,-0.07445 -1.182813,-0.133546 -1.162881,-0.191569 -1.141945,-0.247623 -1.120214,-0.302361 -1.096371,-0.355407 -1.071663,-0.40724 -1.045538,-0.45745 -1.017957,-0.505965 -0.988856,-0.553304 -0.958507,-0.598845 -0.926394,-0.642829 -0.89352,-0.685639 -0.858363,-0.726615 -0.8222,-0.76614 -0.784447,-0.804073 -0.745414,-0.840451 -0.704822,-0.875375 -0.662743,-0.908572 -0.619142,-0.940039 -0.574364,-0.970504 -0.527752,-0.998685 -0.480101,-1.02583 -0.43079,-1.051143 -0.380372,-1.075382 -0.328361,-1.097583 -0.274967,-1.118814 -0.220049,-1.137798 -0.163817,-1.156333 -0.10634,-1.173069 -0.04734,-1.188007 0.0137,-1.202323 0.07423,-1.200353 0.133781,-1.181644 0.191397,-1.161935 0.247975,-1.141256 0.302546,-1.119264 0.355664,-1.095438 0.407536,-1.07106 0.45792,-1.044503 0.506332,-1.017048 0.553705,-0.988311 0.599244,-0.957536 0.643607,-0.925896 0.685963,-0.892562 0.727143,-0.857602 0.766833,-0.821605 0.804691,-0.78374 0.841025,-0.744873 0.875872,-0.704347 0.909196,-0.661952 0.940859,-0.618728 0.970896,-0.573947 0.999548,-0.527231 1.026712,-0.479581 1.052043,-0.430478 1.076024,-0.380131 1.098482,-0.32795 1.119764,-0.27494 1.1389,-0.219752 1.157344,-0.163837 1.173747,-0.106089 1.189007,-0.04717 1.20361,0.01356 1.201049,0.07414 1.182502,0.133545 1.162915,0.191258 1.142084,0.247796 1.119902,0.30205 1.096371,0.355718 1.071525,0.407102 1.045399,0.457589 1.017647,0.505826 0.98882,0.553304 0.958231,0.59881 0.926567,0.642968 0.893036,0.685362 0.858085,0.726616 0.822339,0.765828 0.784447,0.804557 0.745102,0.839967 0.704546,0.87541 0.662432,0.908399 0.619003,0.94035 0.573914,0.970054 0.52789,0.998997 0.47979,1.025657 0.431067,1.051281 0.379956,1.075244 0.328362,1.097582 0.274966,1.118642 0.22005,1.138282 0.163644,1.15616 0.106339,1.173103 0.04706,1.188284 -0.01311,1.202462 -0.07468,1.199764 -0.13347,1.181783 -0.191569,1.162073 -0.247664,1.141291 -0.302719,1.119091 -0.35563,1.095749 -0.40757,1.070749 -0.457609,1.044642 -0.506193,1.016943 -0.553394,0.988139 -0.599244,0.957847 -0.643296,0.925723 -0.685963,0.892424 -0.727004,0.858051 -0.76666,0.821743 -0.804379,0.783914 -0.840887,0.744735 -0.875872,0.704173 -0.909023,0.661952 -0.940582,0.618866 -0.214029,0.126457 0.386428,0 2.175405,0 C 63.909488,49.773012 67.838748,42.896152 68.12548,35.044259 68.624579,21.37844 57.907216,9.8548102 44.230416,9.3558996 30.553892,8.8570237 19.021007,19.569008 18.521597,33.235311 c -0.499099,13.665854 10.222208,25.190383 23.898697,25.68912 0.272856,0.0099 0.54495,0.01522 0.815834,0.01598 l 0.43906,-1.426743 -1.203022,-0.01342 z" /><g
       id="g7952"
       style="fill:#000000"><g
         style="fill:#000000"
         id="g4900"
         transform="matrix(0.34604399,0,0,0.34579327,-50.472827,-109.48398)"><path
           d="m 249.5195,454.0812 c -13.8814,-0.5068 -25.5891,10.3759 -26.095,24.258 -0.5071,13.8821 10.3747,25.5894 24.2572,26.0961 13.8764,0.5065 25.5802,-10.3767 26.0878,-24.2588 0.5068,-13.8818 -10.3739,-25.5888 -24.25,-26.0953 z m -0.1505,4.1187 -1.0864,-0.0127 -1.0712,0.0426 -1.0566,0.0956 -1.0415,0.1478 -1.0254,0.1977 -1.0061,0.2472 -0.9882,0.2953 -0.9688,0.3428 -0.9476,0.3878 -0.9239,0.4324 -0.9007,0.4751 -0.8748,0.5178 -0.8484,0.5581 -0.8196,0.5974 -0.7894,0.6351 -0.7584,0.6726 -0.7265,0.7076 -0.691,0.7416 -0.656,0.7735 -0.618,0.8053 -0.5803,0.835 -0.5392,0.8627 -0.4985,0.8902 -0.456,0.9174 -0.4125,0.9413 -0.3664,0.9636 -0.32,0.9855 -0.2719,1.008 -0.2233,1.0281 -0.172,1.0468 -0.1205,1.0654 -0.0668,1.085 -0.0126,1.086 0.0425,1.0715 0.0956,1.0564 0.1478,1.0418 0.1978,1.0251 0.2474,1.0069 0.295,0.988 0.3425,0.9688 0.3876,0.947 0.4323,0.9237 0.4752,0.9007 0.5177,0.8751 0.5579,0.8482 0.5977,0.8196 0.6355,0.7902 0.6721,0.7584 0.7073,0.7254 0.7419,0.6916 0.7737,0.6559 0.8051,0.6183 0.8344,0.5793 0.8633,0.5397 0.8913,0.4991 0.9165,0.4562 0.9402,0.4117 0.9641,0.3664 0.9866,0.3203 1.0075,0.2725 1.0278,0.2227 1.0476,0.1728 1.066,0.1203 1.0838,0.0676 1.0838,0.0118 1.0715,-0.0426 1.0564,-0.0959 1.041,-0.1475 1.0239,-0.198 1.0064,-0.2472 0.9888,-0.2961 0.9679,-0.3417 0.9457,-0.3878 0.9245,-0.4323 0.9004,-0.476 0.8745,-0.517 0.8476,-0.5584 0.8202,-0.5974 0.7897,-0.6356 0.7578,-0.6713 0.7243,-0.707 0.6913,-0.7424 0.6565,-0.7751 0.6182,-0.8045 0.579,-0.8345 0.54,-0.8638 0.4991,-0.8913 0.4559,-0.9158 0.4115,-0.9407 0.3667,-0.9644 0.3205,-0.9874 0.2722,-1.0067 0.2228,-1.0278 0.1727,-1.0473 0.1203,-1.066 0.0676,-1.083 0.0118,-1.0852 -0.0426,-1.0718 -0.0958,-1.0578 -0.1472,-1.041 -0.1981,-1.0248 -0.2475,-1.0072 -0.2955,-0.9891 -0.3417,-0.9676 -0.3878,-0.9468 -0.4323,-0.9245 -0.476,-0.9012 -0.5167,-0.8749 -0.5584,-0.8481 -0.5974,-0.8202 -0.6347,-0.7894 -0.6716,-0.7578 -0.7078,-0.7263 -0.7413,-0.6913 -0.7738,-0.6556 -0.8047,-0.6183 -0.8353,-0.5804 -0.8625,-0.5394 -0.8902,-0.4986 -0.9154,-0.4554 -0.9408,-0.412 -0.964,-0.3667 -0.9861,-0.3202 -1.0066,-0.2719 -1.0276,-0.2234 -1.0459,-0.1722 -1.0649,-0.1203 -1.0835,-0.0667 z"
           style="fill:#000000;fill-rule:evenodd"
           id="path4902"
           inkscape:connector-curvature="0" /><path
           d="m 293.1846,326.2576 c -13.8809,-0.5067 -25.5888,10.376 -26.0956,24.2578 -0.5059,13.8824 10.3756,25.5896 24.258,26.0964 13.8765,0.5062 25.5814,-10.3768 26.0879,-24.2589 0.5067,-13.8821 -10.3736,-25.589 -24.2503,-26.0953 z m -0.1506,4.1187 -1.0863,-0.0126 -1.0712,0.0426 -1.0566,0.0955 -1.0415,0.1478 -1.0254,0.1978 -1.0061,0.2472 -0.988,0.2953 -0.9687,0.3427 -0.9476,0.3879 -0.924,0.4323 -0.9006,0.4752 -0.8748,0.5177 -0.8485,0.5582 -0.8196,0.5974 -0.7894,0.635 -0.7583,0.6727 -0.7268,0.7078 -0.6913,0.7416 -0.6557,0.7732 -0.618,0.8053 -0.5803,0.835 -0.5392,0.8628 -0.4985,0.8902 -0.456,0.9174 -0.4125,0.9413 -0.3664,0.9635 -0.3203,0.9861 -0.2719,1.0077 -0.2233,1.0279 -0.1722,1.047 -0.1206,1.0654 -0.0668,1.0844 -0.0126,1.0861 0.0426,1.0715 0.0956,1.0564 0.1477,1.0415 0.1981,1.0248 0.2472,1.0069 0.2952,0.988 0.3428,0.9691 0.3879,0.9473 0.4323,0.9243 0.4752,0.9003 0.5177,0.8751 0.5578,0.8482 0.5977,0.8196 0.6356,0.7903 0.6721,0.7583 0.7073,0.7254 0.7419,0.6916 0.7737,0.656 0.805,0.6182 0.8345,0.5793 0.8633,0.5397 0.8912,0.4991 0.9166,0.4562 0.9402,0.4118 0.9641,0.3664 0.9866,0.3202 1.0075,0.2725 1.0278,0.2228 1.0475,0.1727 1.066,0.1204 1.0839,0.0675 1.0841,0.0118 1.0714,-0.0425 1.0564,-0.0959 1.041,-0.1475 1.024,-0.198 1.0063,-0.2472 0.9883,-0.2959 0.9682,-0.3419 0.9459,-0.3881 0.9246,-0.4324 0.9003,-0.476 0.8746,-0.5169 0.8476,-0.5584 0.8201,-0.5974 0.7897,-0.6356 0.7581,-0.6718 0.7246,-0.7068 0.691,-0.7418 0.6565,-0.7752 0.6182,-0.8045 0.579,-0.8344 0.54,-0.8639 0.4991,-0.8913 0.4557,-0.9152 0.4112,-0.9407 0.3669,-0.9649 0.3203,-0.9869 0.2722,-1.007 0.2227,-1.028 0.1728,-1.0474 0.1203,-1.066 0.0676,-1.083 0.0118,-1.0855 -0.0426,-1.0717 -0.0959,-1.0578 -0.1472,-1.041 -0.198,-1.0248 -0.2475,-1.0072 -0.2955,-0.9891 -0.3417,-0.9676 -0.3878,-0.9468 -0.4324,-0.9246 -0.476,-0.9012 -0.5166,-0.8748 -0.5584,-0.8482 -0.5974,-0.8201 -0.6348,-0.7894 -0.6715,-0.7578 -0.7078,-0.7263 -0.7414,-0.6913 -0.7737,-0.6557 -0.8048,-0.6182 -0.8352,-0.5804 -0.8622,-0.5392 -0.8905,-0.4985 -0.9157,-0.4557 -0.9408,-0.412 -0.964,-0.3667 -0.9856,-0.3203 -1.0066,-0.2716 -1.0281,-0.2233 -1.0459,-0.1722 -1.0649,-0.1203 -1.0836,-0.0668 z"
           style="fill:#000000;fill-rule:evenodd"
           id="path4904"
           inkscape:connector-curvature="0" /></g><g
         id="g7943"
         style="fill:#000000"><g
           transform="matrix(0.34604399,0,0,0.34579327,-50.472827,-109.48398)"
           id="g4906"
           style="fill:#000000"><path
             inkscape:connector-curvature="0"
             id="path4908"
             style="fill:#000000;fill-rule:evenodd"
             d="m 230.9281,395.926 c -0.0218,-13.8908 -11.342,-25.176 -25.2332,-25.1534 -13.8911,0.0216 -25.1757,11.3411 -25.1538,25.233 0.0219,13.8858 11.3425,25.1671 25.2337,25.1461 13.8909,-0.0218 25.1752,-11.3402 25.1533,-25.2257 z m -4.1214,0.006 -0.0287,-1.086 -0.0833,-1.0689 -0.1357,-1.0522 -0.1873,-1.0352 -0.2366,-1.0171 -0.2853,-0.9959 -0.3327,-0.9764 -0.3794,-0.955 -0.4236,-0.9321 -0.4672,-0.9069 -0.5091,-0.8819 -0.5506,-0.8545 -0.59,-0.8266 -0.6282,-0.7963 -0.6646,-0.7647 -0.701,-0.7322 -0.7347,-0.699 -0.7674,-0.6624 -0.7978,-0.626 -0.8283,-0.5869 -0.8565,-0.5482 -0.8826,-0.5059 -0.9085,-0.4643 -0.9341,-0.4207 -0.9563,-0.3765 -0.9767,-0.3295 -0.997,-0.2822 -1.0177,-0.2334 -1.0358,-0.184 -1.0525,-0.132 -1.0693,-0.0799 -1.0867,-0.0254 -1.0857,0.0287 -1.0691,0.0833 -1.0519,0.1357 -1.0355,0.1873 -1.0168,0.2366 -0.9967,0.2856 -0.9761,0.3324 -0.955,0.3791 -0.9316,0.4234 -0.9066,0.4671 -0.8819,0.5091 -0.8547,0.5507 -0.8264,0.5897 -0.7962,0.6285 -0.7655,0.6652 -0.7322,0.7005 -0.698,0.7343 -0.6629,0.7677 -0.626,0.7981 -0.5871,0.828 -0.5471,0.8559 -0.5065,0.8832 -0.4648,0.9097 -0.421,0.9332 -0.3757,0.9552 -0.3294,0.9774 -0.2825,0.998 -0.234,1.0172 -0.1834,1.0355 -0.1328,1.0534 -0.0797,1.0698 -0.0263,1.0857 0.0295,1.0835 0.0833,1.0691 0.136,1.0519 0.187,1.0347 0.2368,1.0157 0.2854,0.9962 0.3335,0.9768 0.3782,0.9543 0.4236,0.9302 0.4672,0.9074 0.5099,0.8816 0.5498,0.8543 0.5903,0.8258 0.6281,0.7968 0.6652,0.7649 0.6996,0.7317 0.7341,0.6969 0.7682,0.6626 0.7995,0.6265 0.8274,0.5872 0.8559,0.5468 0.8838,0.5068 0.9096,0.4648 0.9324,0.4208 0.9557,0.3753 0.9776,0.3297 0.9989,0.2828 1.0163,0.2337 1.0356,0.1834 1.0531,0.1328 1.0698,0.0797 1.0848,0.0263 1.0848,-0.0295 1.0694,-0.0833 1.0533,-0.1361 1.0347,-0.1867 1.0165,-0.2369 0.997,-0.2856 0.9771,-0.333 0.954,-0.3782 0.9313,-0.4236 0.9074,-0.4672 0.8824,-0.51 0.8546,-0.5495 0.8263,-0.5903 0.7968,-0.6282 0.7647,-0.6643 0.7317,-0.7 0.6987,-0.7349 0.6626,-0.7671 0.6258,-0.7981 0.5872,-0.8278 0.5481,-0.8567 0.5063,-0.8824 0.4642,-0.9085 0.4203,-0.9322 0.3759,-0.9557 0.3297,-0.9773 0.2825,-0.9976 0.2334,-1.0163 0.1841,-1.0353 0.1323,-1.0517 0.0797,-1.0687 0.0254,-1.0853 z" /><path
             inkscape:connector-curvature="0"
             id="path4910"
             style="fill:#000000;fill-rule:evenodd"
             d="m 360.3192,434.6959 c -0.0218,-13.8902 -11.342,-25.1757 -25.2329,-25.1539 -13.8914,0.0227 -25.176,11.3419 -25.1541,25.2338 0.0221,13.8858 11.3425,25.1683 25.2337,25.1461 13.8911,-0.0218 25.1755,-11.3399 25.1533,-25.226 z m -4.1214,0.006 -0.0287,-1.086 -0.0833,-1.0688 -0.1357,-1.0523 -0.1873,-1.0351 -0.2367,-1.0171 -0.2853,-0.996 -0.3326,-0.976 -0.3794,-0.955 -0.4236,-0.9322 -0.4672,-0.9069 -0.5091,-0.8819 -0.5507,-0.8545 -0.59,-0.8266 -0.6281,-0.7963 -0.6646,-0.7646 -0.7011,-0.7323 -0.7349,-0.6993 -0.7674,-0.6626 -0.7976,-0.6257 -0.8282,-0.5869 -0.8565,-0.5482 -0.8826,-0.506 -0.9085,-0.4643 -0.9341,-0.4207 -0.9563,-0.3764 -0.9768,-0.3295 -0.9975,-0.2825 -1.0174,-0.2334 -1.0355,-0.184 -1.0529,-0.1323 -1.0692,-0.0799 -1.0861,-0.0255 -1.0858,0.0287 -1.0691,0.0834 -1.0519,0.1357 -1.0352,0.1873 -1.0165,0.2369 -0.9968,0.2853 -0.976,0.3326 -0.9553,0.3795 -0.9319,0.4236 -0.9071,0.4672 -0.8816,0.509 -0.8548,0.5507 -0.8263,0.5898 -0.7963,0.6284 -0.7654,0.6652 -0.7323,0.7005 -0.6979,0.7343 -0.6629,0.7677 -0.626,0.7981 -0.5872,0.8281 -0.5471,0.8558 -0.5065,0.8832 -0.4647,0.9097 -0.4211,0.9333 -0.3756,0.9551 -0.3295,0.9774 -0.2824,0.9981 -0.234,1.0171 -0.1835,1.0355 -0.1327,1.0534 -0.0797,1.0698 -0.0263,1.0857 0.0295,1.0838 0.0833,1.0691 0.136,1.0519 0.187,1.0347 0.2368,1.0156 0.2854,0.9963 0.3332,0.9763 0.3785,0.9545 0.4238,0.9305 0.4672,0.9074 0.5099,0.8816 0.5499,0.8543 0.5902,0.8257 0.6282,0.7969 0.6652,0.7649 0.7002,0.732 0.7337,0.6971 0.7677,0.6624 0.7995,0.6265 0.8274,0.5872 0.8559,0.5468 0.8838,0.5068 0.9096,0.4647 0.9319,0.4206 0.9557,0.3751 0.9781,0.3299 0.9984,0.2825 1.0165,0.2337 1.0358,0.1835 1.0532,0.1328 1.0698,0.0796 1.0847,0.0263 1.0852,-0.0295 1.0693,-0.0833 1.0534,-0.1361 1.0346,-0.1867 1.0165,-0.2369 0.9971,-0.2856 0.9771,-0.333 0.9539,-0.3782 0.9314,-0.4236 0.9074,-0.4672 0.8824,-0.51 0.8545,-0.5495 0.8263,-0.5903 0.7968,-0.6282 0.7647,-0.6643 0.7317,-0.6999 0.6988,-0.735 0.6626,-0.7671 0.6257,-0.7981 0.5872,-0.8278 0.5482,-0.8567 0.506,-0.8821 0.4642,-0.9088 0.4205,-0.9324 0.3759,-0.9558 0.3298,-0.9773 0.2825,-0.997 0.2331,-1.0163 0.184,-1.0358 0.1323,-1.0518 0.0797,-1.0687 0.0255,-1.0853 z" /></g><g
           transform="matrix(0.34604399,0,0,0.34579327,-50.472827,-109.48398)"
           id="g4912"
           style="fill:#000000"><path
             inkscape:connector-curvature="0"
             id="path4914"
             style="fill:#000000;fill-rule:evenodd"
             d="m 274.9826,412.1373 -25.6106,-23.5841 12.8671,0 0,-8.3964 -26.6048,0 -0.0457,8.3964 22.2744,20.6912 -22.2287,30.9222 0,8.5619 24.9072,0 0,-8.5697 -5.9123,0.008 20.3534,-28.0293 z" /><path
             inkscape:connector-curvature="0"
             id="path4916"
             style="fill:#000000;fill-rule:evenodd"
             d="m 306.198,388.5532 0,-8.3964 -34.0002,0 0,8.3964 34.0002,0 z m -34.0002,60.1753 34.0002,0 0,-8.5619 -2.9488,0 -31.0514,0 0,8.5619 z" /></g><path
           d="m 66.684004,34.99116 -0.07445,1.201049 -0.133546,1.182813 -0.191569,1.162881 -0.247623,1.141945 -0.302361,1.120214 -0.355407,1.096371 -0.40724,1.071663 -0.45745,1.045538 -0.505965,1.017957 -0.553304,0.988856 -0.598845,0.958507 -0.642829,0.926394 -0.685639,0.89352 -0.726615,0.858363 -0.76614,0.8222 -0.804073,0.784447 -0.840451,0.745414 -0.875375,0.704822 -0.908572,0.662743 -0.940039,0.619142 -0.970504,0.574364 -0.998685,0.527752 -1.02583,0.480101 -1.051143,0.43079 -1.075382,0.380372 -1.097583,0.328361 -1.118814,0.274967 -1.137798,0.220049 -1.156333,0.163817 -1.173069,0.10634 -1.188007,0.04734 -1.202323,-0.0137 -1.200353,-0.07423 -1.181644,-0.133781 -1.161935,-0.191397 -1.141256,-0.247975 -1.119264,-0.302546 -1.095438,-0.355664 -1.07106,-0.407536 -1.044503,-0.45792 -1.017048,-0.506332 -0.988311,-0.553705 -0.957536,-0.599244 -0.925896,-0.643607 -0.892562,-0.685963 -0.857602,-0.727143 -0.821605,-0.766833 -0.78374,-0.804691 -0.744873,-0.841025 -0.704347,-0.875872 -0.661952,-0.909196 -0.618728,-0.940859 -0.573947,-0.970896 -0.527231,-0.999548 -0.479581,-1.026712 -0.430478,-1.052043 -0.380131,-1.076024 -0.32795,-1.098482 -0.27494,-1.119764 -0.219752,-1.1389 -0.163837,-1.157344 -0.106089,-1.173747 -0.04717,-1.189007 0.01356,-1.20361 0.07414,-1.201049 0.133545,-1.182502 0.191258,-1.162915 0.247796,-1.142084 0.30205,-1.119902 0.355718,-1.096371 0.407102,-1.071525 0.457589,-1.045399 0.505826,-1.017647 0.553304,-0.98882 0.59881,-0.958231 0.642968,-0.926567 0.685362,-0.893036 0.726616,-0.858085 0.765828,-0.822339 0.804557,-0.784447 0.839967,-0.745102 0.87541,-0.704546 0.908399,-0.662432 0.94035,-0.619003 0.970054,-0.573914 0.998997,-0.52789 1.025657,-0.47979 1.051281,-0.431067 1.075244,-0.379956 1.097582,-0.328362 1.118642,-0.274966 1.138282,-0.22005 1.15616,-0.163644 1.173103,-0.106339 1.188284,-0.04706 1.202462,0.01311 1.199764,0.07468 1.181783,0.13347 1.162073,0.191569 1.141291,0.247664 1.119091,0.302719 1.095749,0.35563 1.070749,0.40757 1.044642,0.457609 1.016943,0.506193 0.988139,0.553394 0.957847,0.599244 0.925723,0.643296 0.892424,0.685963 0.858051,0.727004 0.821743,0.76666 0.783914,0.804379 0.744735,0.840887 0.704173,0.875872 0.661952,0.909023 0.618866,0.940582 0.126457,0.214029 0,-0.386428 0,-2.175405 C 58.956769,13.553838 52.079909,9.6245778 44.228016,9.3378458 30.562197,8.8387468 19.038567,19.55611 18.539657,33.23291 c -0.498876,13.676524 10.213108,25.209409 23.879411,25.708819 13.665854,0.499099 25.190383,-10.222208 25.68912,-23.898697 0.0099,-0.272856 0.01522,-0.54495 0.01598,-0.815834 l -1.426743,-0.43906 -0.01342,1.203022 z"
           style="fill:#000000;fill-rule:evenodd"
           id="path7941"
           inkscape:connector-curvature="0" /></g></g></g></svg>